<svg width="181" height="180" viewBox="0 0 181 180" fill="none" xmlns="http://www.w3.org/2000/svg">
<ellipse cx="90.5" cy="90" rx="90.5" ry="90" fill="#F8F4F0"/>
<mask id="mask0_66_510" style="mask-type:alpha" maskUnits="userSpaceOnUse" x="0" y="0" width="181" height="180">
<ellipse cx="90.5" cy="90" rx="90.5" ry="90" fill="#F8F4F0"/>
</mask>
<g mask="url(#mask0_66_510)">
<path d="M64.9745 73.9141L63.4822 69.9778L64.6761 66.6975H70.6454L73.3317 69.9778L76.3164 75.8822L76.6148 81.7867V84.0829H73.3317V82.4427L73.0332 80.4746L71.2424 74.8981L69.1531 71.9459L68.8546 70.3058L66.7653 68.0096L68.5562 70.9618L68.8546 77.8504V80.8026L67.0638 82.1147L66.4669 81.1306V78.8345L64.9745 73.9141Z" fill="black"/>
<path d="M73.0331 73.5861C72.0724 74.1878 70.3469 74.5701 70.3469 74.5701C70.3469 74.5701 70.898 76.3188 71.2423 77.5224C71.7022 79.1297 72.1377 81.7867 72.1377 81.7867C72.1377 81.7867 74.171 81.7977 75.4209 81.4587C76.3878 81.1965 77.8087 80.4746 77.8087 80.4746C77.8087 80.4746 77.5067 77.0741 76.9133 75.2262C76.3928 73.6055 75.1224 71.6179 75.1224 71.6179C75.1224 71.6179 73.9668 73.0013 73.0331 73.5861Z" fill="#D5D7D6"/>
<path d="M75.1224 83.4268C74.1947 83.5307 72.7346 83.4268 72.7346 83.4268C72.7346 83.4268 72.1377 84.0829 72.1377 86.7071C72.1377 89.0032 73.3316 90.9714 73.3316 90.9714C73.3316 90.9714 74.2642 91.5191 74.8239 91.2994C75.2896 91.1166 75.7193 90.3153 75.7193 90.3153C75.7193 90.3153 75.6169 88.5005 76.3163 86.7071C77.0156 84.9136 77.1093 84.5642 77.8086 82.7708C77.8086 82.7708 76.1915 83.3071 75.1224 83.4268Z" fill="#D5D7D6"/>
<path d="M72.4363 53.9044C71.0448 53.7482 68.8546 53.9044 68.8546 53.9044L67.6608 60.1369C67.6608 60.1369 70.5876 59.8665 72.4363 60.1369C74.23 60.3992 76.9133 61.449 76.9133 61.449C76.9133 61.449 81.4296 65.7853 84.6735 68.0095C85.2502 68.4049 86.1659 68.9936 86.1659 68.9936L88.8521 69.9776L94.2245 75.226L95.7169 73.9139L93.6276 70.3057L87.6582 63.0891L84.6735 61.449C84.6735 61.449 77.8875 54.5163 72.4363 53.9044Z" fill="#18181C"/>
<path d="M45.8724 78.8345H47.9617L50.051 81.1307C50.051 81.1307 48.8543 82.1198 47.9617 82.4428C47.1788 82.726 45.8724 82.7708 45.8724 82.7708V78.8345Z" fill="#191A1C"/>
<path d="M46.1709 81.5206C46.2227 80.2344 46.4694 78.2403 46.4694 78.2403C46.4694 78.2403 44.0816 77.5843 41.3954 80.5365C40.1702 81.8831 39.9031 85.1289 39.9031 85.1289C39.9031 85.1289 41.9125 85.2728 43.1862 85.0668C44.3622 84.8765 46.1709 84.1448 46.1709 84.1448C46.1709 84.1448 46.1298 82.5444 46.1709 81.5206Z" fill="#D5D7D6"/>
<path d="M57.8112 85.7229L49.7526 74.57L57.2143 70.3057L58.1097 74.242L59.6021 78.5063L63.1837 85.3948L61.3929 87.035L59.3036 88.3471L57.8112 85.7229Z" fill="#19191E"/>
<path d="M26.4719 56.5287C25.7266 56.7885 24.3826 57.5128 24.3826 57.5128C24.3826 57.5128 24.3453 62.1186 24.98 64.7293C25.6798 67.6079 27.9647 71.6179 27.9647 71.6179L32.4413 68.9937C32.4413 68.9937 30.5224 65.7072 29.7551 63.0892C29.0323 60.6233 28.8596 56.2007 28.8596 56.2007C28.8596 56.2007 27.2575 56.255 26.4719 56.5287Z" fill="#191A1E"/>
<path d="M0.206633 60.1369C-7.10391 62.2468 -18 67.0255 -18 67.0255V99.5C-18 99.5 -3.63998 92.4804 5.28061 87.3631C14.8162 81.893 29.1582 72.2739 29.1582 72.2739C29.1582 72.2739 26.9986 67.4525 26.1735 64.0732C25.3528 60.7121 24.9796 55.2166 24.9796 55.2166C24.9796 55.2166 9.64765 57.4122 0.206633 60.1369Z" fill="#D5D7D6"/>
<path d="M29.1916 62.2216C28.3487 59.1453 28.5947 54.021 28.5947 54.021L41.4289 48.1165C41.4289 48.1165 49.4385 47.8544 54.5615 48.1165C60.4122 48.4159 69.485 49.7566 69.485 49.7566C69.485 49.7566 69.8965 52.9552 69.7835 55.005C69.6687 57.0866 68.8881 60.2535 68.8881 60.2535C68.8881 60.2535 70.5814 62.4043 71.5743 63.8617C72.8336 65.7104 74.559 68.7821 74.559 68.7821C74.559 68.7821 73.3484 70.0704 72.4697 70.7503C71.4884 71.5095 69.7835 72.3904 69.7835 72.3904V78.2949C69.7835 78.2949 68.511 78.5021 67.6942 78.6229C66.7628 78.7606 65.3064 78.9509 65.3064 78.9509C65.3064 78.9509 65.2121 77.1368 65.008 75.9987C64.7726 74.6865 64.1126 72.7184 64.1126 72.7184C64.1126 72.7184 65.9175 72.7383 66.7988 72.0624C67.2043 71.7513 67.6942 71.0783 67.6942 71.0783L67.9927 70.4222L66.7988 68.4541L64.411 71.0783C64.411 71.0783 63.8823 71.4472 63.5156 71.4063C63.0975 71.3597 62.6202 70.7503 62.6202 70.7503C62.6202 70.7503 62.3413 69.513 62.0233 68.7821C61.6606 67.9488 60.8294 66.814 60.8294 66.814C60.8294 66.814 60.357 68.0594 59.934 68.7821C59.5302 69.472 58.7401 70.4222 58.7401 70.4222L59.0052 72.2739C59.0052 72.2739 56.7172 72.3254 55.1251 72.7184C53.0373 73.2338 50.383 75.0146 50.383 75.0146L51.5768 76.6547C51.5768 76.6547 53.9302 74.5232 55.7554 74.0305C57.3401 73.6027 59.934 74.0305 59.934 74.0305C59.934 74.0305 60.5272 76.2925 61.1279 77.6388C61.868 79.2976 63.5156 81.5751 63.5156 81.5751C63.5156 81.5751 61.8269 83.557 60.5309 84.5273C59.2385 85.495 56.9493 86.4955 56.9493 86.4955C56.9493 86.4955 54.974 84.8622 53.9646 83.5433C53.153 82.4829 52.1738 80.591 52.1738 80.591L50.0845 82.2312C50.0845 82.2312 48.2923 80.6757 47.6967 79.2789C47.2408 78.2095 47.0998 76.3267 47.0998 76.3267L48.2937 75.3426C48.2937 75.3426 46.7237 73.4348 45.9059 72.0624C44.9064 70.3849 43.8166 67.47 43.8166 67.47L33.6687 70.4222C33.6687 70.4222 30.1716 65.7977 29.1916 62.2216Z" fill="#D5D7D6"/>
<path d="M71.5408 57.1846C71.3178 59.1582 70.3469 62.105 70.3469 62.105C70.3469 62.105 73.5907 63.9741 75.7194 65.0573C78.4695 66.4566 82.8826 68.3375 82.8826 68.3375C82.8826 68.3375 84.9106 66.4 85.5689 64.7292C86.178 63.183 86.1658 60.4649 86.1658 60.4649C86.1658 60.4649 84.9437 59.1943 84.0765 58.4967C82.4776 57.2105 81.3924 56.7997 79.5995 55.8725C76.5628 54.3023 71.5408 52.5923 71.5408 52.5923C71.5408 52.5923 71.7419 55.4049 71.5408 57.1846Z" fill="#D5D7D6"/>
<path d="M93.6276 74.2421C93.199 74.5682 92.4337 75.2262 92.4337 75.2262C92.4337 75.2262 93.0329 77.1355 93.9261 78.1784C94.9978 79.43 96.2122 79.7894 96.3138 79.8186C96.4155 79.8478 98.3708 80.2017 98.7016 79.8186C98.881 79.6108 99 79.1625 99 79.1625C99 79.1625 97.8513 77.199 97.2092 75.8823C96.421 74.2656 95.4184 71.6179 95.4184 71.6179C95.4184 71.6179 94.5859 73.513 93.6276 74.2421Z" fill="#D5D7D6"/>
<path d="M86.7627 66.3693C86.2844 67.6513 84.9719 69.3215 84.9719 69.3215C84.9719 69.3215 86.8539 70.1985 87.9566 70.9617C89.2197 71.8359 90.9413 73.5859 90.9413 73.5859C90.9413 73.5859 92.5625 72.8122 93.3291 71.9457C93.915 71.2834 94.5229 69.9776 94.5229 69.9776C94.5229 69.9776 93.7474 68.0831 93.0306 67.0254C91.9955 65.4981 91.2096 64.439 89.7474 63.4171C88.8677 62.8022 87.3597 62.105 87.3597 62.105C87.3597 62.105 87.3008 64.9274 86.7627 66.3693Z" fill="#D5D7D6"/>
<path d="M61.6914 87.0349C60.7353 87.8321 59.0051 88.6751 59.0051 88.6751C59.0051 88.6751 60.1182 90.944 60.4975 92.6114C60.9215 94.4755 60.7959 97.5318 60.7959 97.5318C60.7959 97.5318 63.0991 97.9626 64.0791 97.5318C65.5715 96.8757 66.1684 95.272 66.4669 94.5795C66.6082 94.2515 67.4132 91.4436 66.4669 88.6751C65.852 86.8763 63.7806 84.7388 63.7806 84.7388C63.7806 84.7388 62.6106 86.2685 61.6914 87.0349Z" fill="#D5D7D6"/>
<path d="M67.3622 80.4745C66.6537 80.5029 65.2729 80.4745 65.2729 80.4745C65.2729 80.4745 64.9831 81.7144 64.9744 82.7707C64.9635 84.1081 64.9879 85.4574 65.8698 86.379C66.1744 86.6972 66.345 87.035 66.7652 87.035C67.1855 87.035 67.6607 86.379 67.6607 86.379C67.6607 86.379 67.9469 84.5573 68.2576 83.4267C68.6205 82.106 69.7499 80.1465 69.7499 80.1465C69.7499 80.1465 68.2102 80.4406 67.3622 80.4745Z" fill="#D5D7D6"/>
<path d="M-2.47961 76.5382C-2.47961 76.5382 5.20051 72.1732 10.3546 69.9777C16.3714 67.4146 26.1734 64.7292 26.1734 64.7292" stroke="white" stroke-width="0.5" stroke-linecap="round"/>
<ellipse cx="-0.688813" cy="72.93" rx="1.19388" ry="1.3121" fill="#D4D8DB"/>
<ellipse cx="2.29593" cy="71.6178" rx="1.19388" ry="1.3121" fill="white"/>
<path d="M29.7551 62.1052L48.5587 55.5447H66.7653L69.4516 56.5288" stroke="#989898" stroke-width="0.5" stroke-linecap="round"/>
<path d="M50.9465 65.0574C48.0725 65.7825 43.7832 67.3536 43.7832 67.3536C43.7832 67.3536 40.5 67.3536 40.2016 62.7612C39.9457 58.8249 44.9487 55.5246 48.5587 55.2166C52.6673 54.8661 57.8112 56.5287 57.8112 61.4491C57.8112 62.6644 56.9158 63.7453 56.9158 63.7453C56.9158 63.7453 53.244 64.4777 50.9465 65.0574Z" fill="#191A1E"/>
<ellipse cx="34.5307" cy="63.7452" rx="1.19388" ry="1.3121" fill="white"/>
<ellipse cx="59.0052" cy="58.4969" rx="1.19388" ry="1.3121" fill="white"/>
<ellipse cx="54.2296" cy="70.9617" rx="0.596939" ry="0.656051" fill="white"/>
<ellipse cx="60.199" cy="82.1145" rx="0.596939" ry="0.656051" fill="#D5D7D6"/>
<ellipse cx="73.0331" cy="56.2006" rx="0.895408" ry="0.984076" fill="white"/>
<path d="M94.2245 73.9141C94.2245 73.9141 95.0262 75.9798 95.7168 77.1943C96.3346 78.2806 97.5077 79.8185 97.5077 79.8185" stroke="#A8A8A8" stroke-width="0.5" stroke-linecap="round"/>
<path d="M87.0613 65.3853C87.0613 65.3853 89.1482 67.078 90.3444 68.3375C91.4768 69.5297 93.0307 71.6177 93.0307 71.6177" stroke="#A8A8A8" stroke-width="0.5" stroke-linecap="round"/>
<path d="M71.5408 57.5127C71.5408 57.5127 76.5735 58.9707 79.5994 60.4649C82.0263 61.6633 85.5688 64.0732 85.5688 64.0732" stroke="#A8A8A8" stroke-width="0.5" stroke-linecap="round"/>
<path d="M74.824 83.4268C74.824 83.4268 74.1838 84.7885 73.9286 85.7229C73.4248 87.5674 73.6301 90.6433 73.6301 90.6433" stroke="#A8A8A8" stroke-width="0.5" stroke-linecap="round"/>
<path d="M73.0332 73.9141C73.0332 73.9141 74.108 76.2495 74.5255 77.8504C74.8847 79.2271 75.1225 81.4586 75.1225 81.4586" stroke="#A8A8A8" stroke-width="0.5" stroke-linecap="round"/>
<path d="M65.8699 86.051C65.8699 86.051 65.8294 84.1974 66.1684 83.0988C66.4702 82.1207 67.3623 80.8026 67.3623 80.8026M66.4668 62.7612C66.4668 62.7612 68.5025 65.5309 69.75 67.3536C70.703 68.746 72.1378 70.9619 72.1378 70.9619" stroke="#A8A8A8" stroke-width="0.5" stroke-linecap="round"/>
<path d="M66.4668 72.6018C66.4668 72.6018 67.1269 74.5699 67.3622 75.8821C67.5663 77.0202 67.6607 78.5063 67.6607 78.5063" stroke="#A8A8A8" stroke-width="0.5" stroke-linecap="round"/>
<path d="M61.3928 87.0349C61.3928 87.0349 62.9431 90.1103 63.1836 92.2833C63.4245 94.46 62.5867 97.8598 62.5867 97.8598" stroke="#A8A8A8" stroke-width="0.5" stroke-linecap="round"/>
<path d="M54.2296 75.2261C54.2296 75.2261 55.9084 77.5919 56.9158 79.1624C58.2757 81.2824 60.199 84.7388 60.199 84.7388" stroke="#989898" stroke-width="0.5" stroke-linecap="round"/>
<path d="M40.5 82.7706C40.5 82.7706 41.9204 82.0464 42.8878 81.7865C44.0257 81.4808 45.8724 81.4585 45.8724 81.4585" stroke="#A8A8A8" stroke-width="0.5" stroke-linecap="round"/>
<path d="M49.7526 65.3853C49.7526 65.3853 51.1196 69.5525 52.4388 71.6177C52.8676 72.2891 53.3342 72.9298 53.3342 72.9298" stroke="#989898" stroke-width="0.5" stroke-linecap="round"/>
</g>
<mask id="mask1_66_510" style="mask-type:alpha" maskUnits="userSpaceOnUse" x="1" y="0" width="180" height="180">
<circle cx="91" cy="90" r="90" fill="#F8F4F0"/>
</mask>
<g mask="url(#mask1_66_510)">
<path d="M145.821 102.26L145.14 101.545L140.369 106.552C140.369 106.552 140.881 108.275 141.051 109.413C141.443 112.039 141.673 113.75 140.71 116.208C140.022 117.965 137.984 120.142 137.984 120.142C137.984 120.142 140.807 120.174 142.073 119.069C143.498 117.826 143.777 114.42 143.777 114.42C143.777 114.42 143.748 112.769 143.436 110.844C143.242 109.647 142.659 108.345 142.755 107.267C142.83 106.421 142.796 106.268 143.095 105.479C143.653 104.011 145.821 102.26 145.821 102.26Z" fill="#F5A491"/>
<path d="M206.476 82.2326C213.568 82.502 224.534 80.0868 224.534 80.0868V110.486C224.534 110.486 203.343 104.328 191.143 97.2534C188.846 95.9213 185.35 93.677 185.35 93.677C185.35 93.677 182.299 95.3607 180.239 96.1805C176.164 97.8028 173.69 98.9011 169.336 98.684C166.048 98.52 161.158 96.5381 161.158 96.5381C161.158 96.5381 160.632 97.5031 160.136 97.9687C159.779 98.3045 159.114 98.684 159.114 98.684C159.114 98.684 158.522 100.009 158.092 100.83C157.486 101.984 157.047 102.569 156.388 103.691C155.167 105.771 153.626 106.633 153.322 109.055C153.147 110.447 153.689 111.229 153.662 112.632C153.63 114.331 152.981 116.924 152.981 116.924L151.959 117.639L151.277 117.281C151.277 117.281 150.664 114.987 149.914 113.705C149.174 112.44 148.145 112.18 147.529 110.844C146.999 109.694 146.943 108.922 146.85 107.657L146.848 107.625C146.797 106.929 146.754 106.528 146.848 105.837C147.058 104.291 148.551 102.26 148.551 102.26C148.551 102.26 147.493 102.091 146.848 102.26C145.657 102.573 145.118 103.318 144.462 104.406C143.598 105.842 143.869 107.001 143.781 108.698C143.65 111.224 145.048 112.682 144.462 115.135C143.925 117.39 143.485 119.371 141.396 120.142C140.266 120.56 138.329 120.142 138.329 120.142C138.329 120.142 137.918 117.744 137.648 116.208C137.131 113.272 136.285 108.698 136.285 108.698C136.285 108.698 134.733 111.626 133.218 112.99C131.727 114.332 130.729 115.17 128.789 115.493C127.869 115.646 127.139 116.093 126.404 115.493C126.025 115.184 125.722 114.42 125.722 114.42C125.722 114.42 128.689 108.495 129.811 104.406C130.562 101.669 130.263 99.9368 131.174 97.2534C131.415 96.5449 131.855 95.4652 131.855 95.4652C131.855 95.4652 137.277 92.0586 140.033 89.0277C142.404 86.4205 145.144 81.5173 145.144 81.5173C145.144 81.5173 143.68 81.362 142.759 81.1597C141.111 80.7978 138.67 79.7291 138.67 79.7291C138.67 79.7291 135.368 80.5263 133.218 80.8021C129.124 81.3273 122.656 80.8021 122.656 80.8021C122.656 80.8021 119.427 82.4475 117.204 82.9479C114.858 83.4758 111.071 83.3055 111.071 83.3055C111.071 83.3055 108.124 81.1051 108.004 79.0139C107.956 78.1658 108.345 76.868 108.345 76.868C108.345 76.868 112.319 76.1243 114.819 75.4375C117.384 74.7327 121.293 73.2917 121.293 73.2917C121.293 73.2917 126.316 72.378 129.47 71.5035C132.44 70.6799 136.966 69 136.966 69L148.551 71.1458C148.551 71.1458 156.303 74.1126 161.499 74.7222C165.466 75.1876 171.721 74.7222 171.721 74.7222C171.721 74.7222 177.599 77.6022 181.602 78.6562C185.893 79.7859 192.846 80.0868 192.846 80.0868C192.846 80.0868 201.097 82.0284 206.476 82.2326Z" fill="#E9C7AB"/>
<path d="M115.837 81.1596C113.103 81.7666 108.682 81.1596 108.682 81.1596L111.067 83.6631C111.067 83.6631 114.636 83.7663 116.859 83.3055C119.212 82.8176 122.652 81.1596 122.652 81.1596C122.652 81.1596 128.482 81.5223 132.192 81.1596C134.741 80.9105 138.666 80.0867 138.666 80.0867C138.666 80.0867 140.892 81.169 142.414 81.5173C143.721 81.8163 145.821 81.8749 145.821 81.8749C145.821 81.8749 147.285 84.2658 148.206 85.8089C149.285 87.6155 150.932 90.4582 150.932 90.4582C150.932 90.4582 148.154 93.247 146.162 94.7499C143.213 96.9746 140.277 96.4428 137.984 99.3992C136.097 101.833 136.433 104.023 135.259 106.91C134.043 109.897 131.851 114.42 131.851 114.42C131.851 114.42 134.864 111.395 136.281 109.055C137.977 106.253 137.11 103.534 139.347 101.187C140.865 99.5957 144.118 98.3263 144.118 98.3263C144.118 98.3263 150.811 95.5395 153.999 92.2464C156.524 89.638 159.11 84.3784 159.11 84.3784C159.11 84.3784 158.178 85.3664 157.406 85.4513C156.339 85.5687 155.951 84.5826 155.021 84.0207C153.419 83.0526 150.932 81.5173 150.932 81.5173C150.932 81.5173 145.924 80.7189 143.095 79.3714C141.516 78.6189 139.347 77.5833 139.347 77.5833C139.347 77.5833 133.381 79.2631 129.466 79.3714C126.395 79.4565 121.629 78.6562 121.629 78.6562C121.629 78.6562 118.23 80.6283 115.837 81.1596Z" fill="#F7A897"/>
<path d="M146.503 96.8957C145.566 97.3007 144.118 97.9686 144.118 97.9686C144.118 97.9686 143.906 98.8864 144.118 99.3992C144.382 100.04 145.481 100.472 145.481 100.472C145.481 100.472 147.407 100.233 148.547 99.7568C149.544 99.3401 150.932 98.3262 150.932 98.3262C150.932 98.3262 149.508 97.9273 148.888 97.2533C148.555 96.8911 148.206 96.1804 148.206 96.1804C148.206 96.1804 147.165 96.6093 146.503 96.8957Z" fill="#F0F3F8"/>
<path d="M127.081 111.559L125.718 114.42C125.718 114.42 125.57 114.903 125.718 115.135C125.94 115.484 126.74 115.135 126.74 115.135C126.74 115.135 128.499 114.097 129.125 112.989C129.686 111.999 129.807 110.128 129.807 110.128C129.807 110.128 129.399 109.894 129.125 109.771C128.739 109.597 128.103 109.413 128.103 109.413L127.081 111.559Z" fill="#F3F2F1"/>
<path d="M112.43 75.7951C110.805 76.0757 108.378 76.7324 108.341 76.8681C108.273 77.1171 111.236 77.7498 113.111 77.5833C114.623 77.4491 116.859 76.5104 116.859 76.5104V75.4375C116.859 75.4375 114.141 75.4995 112.43 75.7951Z" fill="#F2F3F5"/>
<path d="M181.727 89.7429L225 91.8887V111.201L202.512 103.333L186.157 94.3922C186.157 94.3922 181.687 96.6473 178.66 97.611C175.289 98.6844 173.324 99.4561 169.801 99.3992C166.54 99.3464 161.624 97.611 161.624 97.611C161.624 97.611 161.293 98.34 160.942 98.6839C160.508 99.1104 159.58 99.3992 159.58 99.3992C159.58 99.3992 158.008 102.508 156.854 104.406C155.622 106.432 153.446 109.413 153.446 109.413C153.446 109.413 154.128 111.786 154.128 113.347C154.128 114.909 153.446 117.281 153.446 117.281C153.446 117.281 152.988 118.389 152.424 118.354C152.127 118.336 151.743 117.996 151.743 117.996C151.743 117.996 151.189 115.459 150.38 114.062C149.402 112.374 146.972 110.486 146.972 110.486C146.972 110.486 146.682 108.273 146.972 106.91C147.376 105.016 149.358 102.618 149.358 102.618C149.358 102.618 152.787 101.563 154.809 100.472C157.437 99.0547 160.942 95.8228 160.942 95.8228C160.942 95.8228 169.534 95.6649 174.572 93.6769C177.524 92.5118 181.727 89.7429 181.727 89.7429Z" fill="#F2A591"/>
<path d="M147.184 102.618L146.503 101.903L141.732 106.91C141.732 106.91 142.244 108.633 142.414 109.771C142.806 112.396 143.035 114.108 142.073 116.566C141.385 118.323 139.347 120.5 139.347 120.5C139.347 120.5 142.17 120.531 143.436 119.427C144.861 118.184 145.14 114.778 145.14 114.778C145.14 114.778 145.111 113.127 144.799 111.201C144.605 110.005 144.022 108.703 144.118 107.625C144.193 106.779 144.159 106.626 144.458 105.837C145.016 104.369 147.184 102.618 147.184 102.618Z" fill="#F5A491"/>
</g>
</svg>
