<svg width="375" height="107" viewBox="0 0 375 107" fill="none" xmlns="http://www.w3.org/2000/svg">
<path d="M260.5 81.5L259.5 80.5L252.5 87.5C252.5 87.5 253.251 89.9092 253.5 91.5C254.075 95.1704 254.412 97.5637 253 101C251.99 103.457 249 106.5 249 106.5C249 106.5 253.143 106.544 255 105C257.091 103.261 257.5 98.5 257.5 98.5C257.5 98.5 257.458 96.1917 257 93.5C256.715 91.8274 255.859 90.0068 256 88.5C256.11 87.3174 256.06 87.1034 256.5 86C257.318 83.9478 260.5 81.5 260.5 81.5Z" fill="#F5A491"/>
<path d="M139 39.5L136.5 33.5L138.5 28.5H148.5L153 33.5L158 42.5L158.5 51.5V55H153V52.5L152.5 49.5L149.5 41L146 36.5L145.5 34L142 30.5L145 35L145.5 45.5V50L142.5 52L141.5 50.5V47L139 39.5Z" fill="black"/>
<path d="M152.5 39C150.891 39.9172 148 40.5 148 40.5C148 40.5 148.923 43.1654 149.5 45C150.27 47.45 151 51.5 151 51.5C151 51.5 154.406 51.5167 156.5 51C158.12 50.6003 160.5 49.5 160.5 49.5C160.5 49.5 159.994 44.3167 159 41.5C158.128 39.0296 156 36 156 36C156 36 154.064 38.1086 152.5 39Z" fill="#D5D7D6"/>
<path d="M156 54C154.446 54.1584 152 54 152 54C152 54 151 55 151 59C151 62.5 153 65.5 153 65.5C153 65.5 154.562 66.3349 155.5 66C156.28 65.7214 157 64.5 157 64.5C157 64.5 156.828 61.7337 158 59C159.172 56.2663 159.328 55.7337 160.5 53C160.5 53 157.791 53.8175 156 54Z" fill="#D5D7D6"/>
<path d="M151.5 8.99999C149.169 8.76188 145.5 8.99999 145.5 8.99999L143.5 18.5C143.5 18.5 148.403 18.0879 151.5 18.5C154.505 18.8998 159 20.5 159 20.5C159 20.5 166.566 27.1097 172 30.5C172.966 31.1027 174.5 32 174.5 32L179 33.5L188 41.5L190.5 39.5L187 34L177 23L172 20.5C172 20.5 160.632 9.93278 151.5 8.99999Z" fill="#18181C"/>
<path d="M107 47H110.5L114 50.5C114 50.5 111.995 52.0078 110.5 52.5C109.189 52.9317 107 53 107 53V47Z" fill="#191A1C"/>
<path d="M107.5 51.0947C107.587 49.1342 108 46.0947 108 46.0947C108 46.0947 104 45.0947 99.5 49.5947C97.4474 51.6472 97 56.5947 97 56.5947C97 56.5947 100.366 56.8141 102.5 56.5C104.47 56.21 107.5 55.0947 107.5 55.0947C107.5 55.0947 107.431 52.6552 107.5 51.0947Z" fill="#D5D7D6"/>
<path d="M127 57.5L113.5 40.5L126 34L127.5 40L130 46.5L136 57L133 59.5L129.5 61.5L127 57.5Z" fill="#19191E"/>
<path d="M74.4999 13.0001C73.2513 13.396 71 14.5 71 14.5C71 14.5 70.9375 21.5205 72.0007 25.5C73.1729 29.8878 77.0007 36 77.0007 36L84.4999 32C84.4999 32 81.2853 26.9905 79.9999 23C78.7892 19.2413 78.4999 12.5 78.4999 12.5C78.4999 12.5 75.8161 12.5827 74.4999 13.0001Z" fill="#191A1E"/>
<path d="M30.5 18.5C18.2533 21.7161 0 29 0 29V78.5C0 78.5 24.0561 67.8002 39 60C54.9741 51.6621 79 37 79 37C79 37 75.3822 29.651 74 24.5C72.6252 19.3767 72 11 72 11C72 11 46.3157 14.3467 30.5 18.5Z" fill="#D5D7D6"/>
<path d="M79.056 21.6776C77.6439 16.9885 78.056 9.1776 78.056 9.1776L99.556 0.177598C99.556 0.177598 112.974 -0.221998 121.556 0.177598C131.357 0.63395 146.556 2.6776 146.556 2.6776C146.556 2.6776 147.245 7.55304 147.056 10.6776C146.864 13.8504 145.556 18.6776 145.556 18.6776C145.556 18.6776 148.393 21.956 150.056 24.1776C152.166 26.9955 155.056 31.6776 155.056 31.6776C155.056 31.6776 153.028 33.6412 151.556 34.6776C149.912 35.8349 147.056 37.1776 147.056 37.1776V46.1776C147.056 46.1776 144.924 46.4935 143.556 46.6776C141.996 46.8874 139.556 47.1776 139.556 47.1776C139.556 47.1776 139.398 44.4124 139.056 42.6776C138.662 40.6775 137.556 37.6776 137.556 37.6776C137.556 37.6776 140.58 37.7078 142.056 36.6776C142.735 36.2035 143.556 35.1776 143.556 35.1776L144.056 34.1776L142.056 31.1776L138.056 35.1776C138.056 35.1776 137.17 35.7399 136.556 35.6776C135.856 35.6065 135.056 34.6776 135.056 34.6776C135.056 34.6776 134.589 32.7917 134.056 31.6776C133.448 30.4073 132.056 28.6776 132.056 28.6776C132.056 28.6776 131.265 30.576 130.556 31.6776C129.88 32.7291 128.556 34.1776 128.556 34.1776L129 37C129 37 125.167 37.0785 122.5 37.6776C119.003 38.4631 114.556 41.1776 114.556 41.1776L116.556 43.6776C116.556 43.6776 120.498 40.4286 123.556 39.6776C126.211 39.0256 130.556 39.6776 130.556 39.6776C130.556 39.6776 131.55 43.1255 132.556 45.1776C133.796 47.7061 136.556 51.1776 136.556 51.1776C136.556 51.1776 133.727 54.1985 131.556 55.6776C129.391 57.1526 125.556 58.6776 125.556 58.6776C125.556 58.6776 122.247 56.1879 120.556 54.1776C119.196 52.5613 117.556 49.6776 117.556 49.6776L114.056 52.1776C114.056 52.1776 111.054 49.8067 110.056 47.6776C109.292 46.0475 109.056 43.1776 109.056 43.1776L111.056 41.6776C111.056 41.6776 108.426 38.7695 107.056 36.6776C105.382 34.1207 103.556 29.6776 103.556 29.6776L86.556 34.1776C86.556 34.1776 80.6976 27.1286 79.056 21.6776Z" fill="#D5D7D6"/>
<path d="M150 14C149.626 17.0082 148 21.5 148 21.5C148 21.5 153.434 24.349 157 26C161.607 28.133 169 31 169 31C169 31 172.397 28.0467 173.5 25.5C174.52 23.1432 174.5 19 174.5 19C174.5 19 172.453 17.0633 171 16C168.321 14.0394 166.504 13.4132 163.5 12C158.413 9.60651 150 7 150 7C150 7 150.337 11.2872 150 14Z" fill="#D5D7D6"/>
<path d="M187 40C186.282 40.4971 185 41.5 185 41.5C185 41.5 186.004 44.4103 187.5 46C189.295 47.9077 191.33 48.4555 191.5 48.5C191.67 48.5445 194.946 49.0841 195.5 48.5C195.801 48.1832 196 47.5 196 47.5C196 47.5 194.076 44.5071 193 42.5C191.679 40.0358 190 36 190 36C190 36 188.605 38.8885 187 40Z" fill="#D5D7D6"/>
<path d="M175.5 28C174.699 29.9541 172.5 32.5 172.5 32.5C172.5 32.5 175.653 33.8366 177.5 35C179.616 36.3325 182.5 39 182.5 39C182.5 39 185.216 37.8207 186.5 36.5C187.482 35.4905 188.5 33.5 188.5 33.5C188.5 33.5 187.201 30.6123 186 29C184.266 26.672 182.949 25.0577 180.5 23.5C179.026 22.5628 176.5 21.5 176.5 21.5C176.5 21.5 176.401 25.8022 175.5 28Z" fill="#D5D7D6"/>
<path d="M133.5 59.5C131.898 60.715 129 62 129 62C129 62 130.865 65.4585 131.5 68C132.21 70.8415 132 75.5 132 75.5C132 75.5 135.858 76.1567 137.5 75.5C140 74.5 141 72.0556 141.5 71C141.737 70.5 143.085 66.22 141.5 62C140.47 59.2582 137 56 137 56C137 56 135.04 58.3317 133.5 59.5Z" fill="#D5D7D6"/>
<path d="M143 49.5C141.813 49.5432 139.5 49.5 139.5 49.5C139.5 49.5 139.015 51.3899 139 53C138.982 55.0385 139.023 57.0953 140.5 58.5C141.01 58.9851 141.296 59.5 142 59.5C142.704 59.5 143.5 58.5 143.5 58.5C143.5 58.5 143.98 55.7234 144.5 54C145.108 51.9868 147 49 147 49C147 49 144.421 49.4483 143 49.5Z" fill="#D5D7D6"/>
<path d="M31 38C31 39.1046 30.1046 40 29 40C27.8954 40 27 39.1046 27 38C27 36.8954 27.8954 36 29 36C30.1046 36 31 36.8954 31 38Z" fill="white"/>
<path d="M36 36C36 37.1046 35.1046 38 34 38C32.8954 38 32 37.1046 32 36C32 34.8954 32.8954 34 34 34C35.1046 34 36 34.8954 36 36Z" fill="white"/>
<path d="M115.5 26C110.685 27.1053 103.5 29.5 103.5 29.5C103.5 29.5 98 29.5 97.5001 22.5C97.0715 16.5 105.453 11.4694 111.5 11C118.383 10.4657 127 13 127 20.5C127 22.3524 125.5 24 125.5 24C125.5 24 119.349 25.1164 115.5 26Z" fill="#191A1E"/>
<path d="M90 24C90 25.1046 89.1046 26 88 26C86.8954 26 86 25.1046 86 24C86 22.8954 86.8954 22 88 22C89.1046 22 90 22.8954 90 24Z" fill="white"/>
<path d="M131 16C131 17.1046 130.105 18 129 18C127.895 18 127 17.1046 127 16C127 14.8954 127.895 14 129 14C130.105 14 131 14.8954 131 16Z" fill="white"/>
<path d="M122 35C122 35.5523 121.552 36 121 36C120.448 36 120 35.5523 120 35C120 34.4477 120.448 34 121 34C121.552 34 122 34.4477 122 35Z" fill="white"/>
<path d="M132 52C132 52.5523 131.552 53 131 53C130.448 53 130 52.5523 130 52C130 51.4477 130.448 51 131 51C131.552 51 132 51.4477 132 52Z" fill="#D5D7D6"/>
<path d="M154 12.5C154 13.3284 153.328 14 152.5 14C151.672 14 151 13.3284 151 12.5C151 11.6716 151.672 11 152.5 11C153.328 11 154 11.6716 154 12.5Z" fill="#D5D7D6"/>
<path d="M349.506 53.5C359.914 53.8765 376.006 50.5 376.006 50.5V93C376.006 93 344.91 84.3914 327.006 74.5C323.635 72.6376 318.506 69.5 318.506 69.5C318.506 69.5 314.028 71.8539 311.006 73C305.026 75.268 301.395 76.8036 295.006 76.5C290.181 76.2708 283.006 73.5 283.006 73.5C283.006 73.5 282.234 74.849 281.506 75.5C280.981 75.9694 280.006 76.5 280.006 76.5C280.006 76.5 279.138 78.3524 278.506 79.5C277.618 81.1138 276.973 81.9317 276.006 83.5C274.214 86.408 271.953 87.6136 271.506 91C271.25 92.9455 272.046 94.038 272.006 96C271.959 98.375 271.006 102 271.006 102L269.506 103L268.506 102.5C268.506 102.5 267.607 99.292 266.506 97.5C265.42 95.7313 263.91 95.3685 263.006 93.5C262.229 91.8928 262.146 90.8128 262.01 89.0442L262.006 89C261.931 88.0266 261.868 87.4665 262.006 86.5C262.315 84.3388 264.506 81.5 264.506 81.5C264.506 81.5 262.953 81.2632 262.006 81.5C260.26 81.9366 259.468 82.9783 258.506 84.5C257.237 86.508 257.636 88.1281 257.506 90.5C257.314 94.0311 259.365 96.0695 258.506 99.5C257.717 102.653 257.072 105.421 254.006 106.5C252.348 107.083 249.506 106.5 249.506 106.5C249.506 106.5 248.903 103.147 248.506 101C247.748 96.8953 246.506 90.5 246.506 90.5C246.506 90.5 244.229 94.5933 242.006 96.5C239.818 98.3768 238.354 99.5485 235.506 100C234.156 100.214 233.085 100.839 232.006 100C231.45 99.5678 231.006 98.5 231.006 98.5C231.006 98.5 235.359 90.2158 237.006 84.5C238.109 80.6731 237.669 78.2515 239.006 74.5C239.359 73.5095 240.006 72 240.006 72C240.006 72 247.961 67.2373 252.006 63C255.486 59.3549 259.506 52.5 259.506 52.5C259.506 52.5 257.358 52.2829 256.006 52C253.589 51.494 250.006 50 250.006 50C250.006 50 245.161 51.1144 242.006 51.5C235.998 52.2343 226.506 51.5 226.506 51.5C226.506 51.5 221.769 53.8005 218.506 54.5C215.064 55.238 209.506 55 209.506 55C209.506 55 205.182 51.9236 205.006 49C204.935 47.8144 205.506 46 205.506 46C205.506 46 211.338 44.9602 215.006 44C218.77 43.0147 224.506 41 224.506 41C224.506 41 231.878 39.7226 236.506 38.5C240.865 37.3486 247.506 35 247.506 35L264.506 38C264.506 38 275.881 42.1477 283.506 43C289.328 43.6507 298.506 43 298.506 43C298.506 43 307.132 47.0264 313.006 48.5C319.302 50.0794 329.506 50.5 329.506 50.5C329.506 50.5 341.613 53.2145 349.506 53.5Z" fill="#E9C7AB"/>
<path d="M216.5 52C212.488 52.8485 206 52 206 52L209.5 55.5C209.5 55.5 214.738 55.6443 218 55C221.453 54.3179 226.5 52 226.5 52C226.5 52 235.056 52.507 240.5 52C244.24 51.6517 250 50.5 250 50.5C250 50.5 253.267 52.0131 255.5 52.5C257.417 52.9181 260.5 53 260.5 53C260.5 53 262.648 56.3427 264 58.5C265.583 61.0256 268 65 268 65C268 65 263.924 68.8988 261 71C256.672 74.1103 252.365 73.3667 249 77.5C246.23 80.903 246.723 83.9644 245 88C243.217 92.1769 240 98.5 240 98.5C240 98.5 244.422 94.2715 246.5 91C248.989 87.0824 247.716 83.2803 251 80C253.227 77.7748 258 76 258 76C258 76 267.822 72.1039 272.5 67.5C276.206 63.8532 280 56.5 280 56.5C280 56.5 278.632 57.8813 277.5 58C275.934 58.1641 275.364 56.7855 274 56C271.649 54.6464 268 52.5 268 52.5C268 52.5 260.651 51.3838 256.5 49.5C254.182 48.4479 251 47 251 47C251 47 242.244 49.3485 236.5 49.5C231.994 49.6189 225 48.5 225 48.5C225 48.5 220.012 51.2571 216.5 52Z" fill="#F7A897"/>
<path d="M261.5 74C260.125 74.5662 258 75.5 258 75.5C258 75.5 257.69 76.7831 258 77.5C258.387 78.3961 260 79 260 79C260 79 262.828 78.6661 264.5 78C265.962 77.4175 268 76 268 76C268 76 265.91 75.4423 265 74.5C264.511 73.9935 264 73 264 73C264 73 262.472 73.5996 261.5 74Z" fill="#F0F3F8"/>
<path d="M231 98.5C231 98.5 230.783 99.1751 231 99.5C231.325 99.9874 232.5 99.5 232.5 99.5C232.5 99.5 235.081 98.0479 236 96.5C236.822 95.1155 237 92.5 237 92.5C237 92.5 236.401 92.172 236 92C235.432 91.7568 234.5 91.5 234.5 91.5L231 98.5Z" fill="#F3F2F1"/>
<path d="M211.5 44.5C209.117 44.8922 205.554 45.8103 205.5 46C205.401 46.3482 209.748 47.2327 212.5 47C214.718 46.8124 218 45.5 218 45.5V44C218 44 214.012 44.0866 211.5 44.5Z" fill="#F2F3F5"/>
<path d="M22.5 36L0 45V56.5L27 43C27 43 25.8632 39.6014 24.5 38C23.6896 37.0479 22.5 36 22.5 36Z" fill="black"/>
<path d="M16 56.5C9.9288 60.1334 0 65 0 65V55.5L26 40.5C26 40.5 27.8204 44.0238 28 45.5C28.1668 46.8706 27.5 49 27.5 49C27.5 49 20.6007 53.7466 16 56.5Z" fill="#313131"/>
<path d="M312.189 64L375.689 67V94L342.689 83L318.689 70.5C318.689 70.5 312.131 73.6527 307.689 75C302.742 76.5007 299.859 77.5796 294.689 77.5C289.903 77.4263 282.689 75 282.689 75C282.689 75 282.204 76.0192 281.689 76.5C281.051 77.0963 279.689 77.5 279.689 77.5C279.689 77.5 277.383 81.846 275.689 84.5C273.882 87.3318 270.689 91.5 270.689 91.5C270.689 91.5 271.689 94.8169 271.689 97C271.689 99.1831 270.689 102.5 270.689 102.5C270.689 102.5 270.016 104.049 269.189 104C268.754 103.974 268.189 103.5 268.189 103.5C268.189 103.5 267.377 99.953 266.189 98C264.755 95.6403 261.189 93 261.189 93C261.189 93 260.763 89.9055 261.189 88C261.781 85.3527 264.689 82 264.689 82C264.689 82 269.722 80.525 272.689 79C276.546 77.0185 281.689 72.5 281.689 72.5C281.689 72.5 294.297 72.2793 301.689 69.5C306.022 67.871 312.189 64 312.189 64Z" fill="#F2A591"/>
<path d="M261.5 82L260.5 81L253.5 88C253.5 88 254.251 90.4092 254.5 92C255.075 95.6704 255.412 98.0637 254 101.5C252.99 103.957 250 107 250 107C250 107 254.143 107.044 256 105.5C258.091 103.761 258.5 99 258.5 99C258.5 99 258.458 96.6917 258 94C257.715 92.3274 256.859 90.5068 257 89C257.11 87.8174 257.06 87.6034 257.5 86.5C258.318 84.4478 261.5 82 261.5 82Z" fill="#F5A491"/>
</svg>
