<svg width="181" height="181" viewBox="0 0 181 181" fill="none" xmlns="http://www.w3.org/2000/svg">
<ellipse cx="90.5" cy="90" rx="90.5" ry="90" fill="#F8F4F0"/>
<mask id="mask0_65_256" style="mask-type:alpha" maskUnits="userSpaceOnUse" x="0" y="0" width="181" height="180">
<ellipse cx="90.5" cy="90" rx="90.5" ry="90" fill="#291500"/>
</mask>
<g mask="url(#mask0_65_256)">
<path d="M64.9745 74.914L63.4822 70.9777L64.6761 67.6974H70.6454L73.3317 70.9777L76.3164 76.8822L76.6148 82.7866V85.0828H73.3317V83.4427L73.0332 81.4745L71.2424 75.8981L69.1531 72.9459L68.8546 71.3057L66.7653 69.0096L68.5562 71.9618L68.8546 78.8503V81.8025L67.0638 83.1146L66.4669 82.1306V79.8344L64.9745 74.914Z" fill="black"/>
<path d="M73.0331 74.586C72.0724 75.1877 70.3469 75.5701 70.3469 75.5701C70.3469 75.5701 70.898 77.3187 71.2423 78.5223C71.7022 80.1297 72.1377 82.7866 72.1377 82.7866C72.1377 82.7866 74.171 82.7976 75.4209 82.4586C76.3878 82.1964 77.8087 81.4745 77.8087 81.4745C77.8087 81.4745 77.5067 78.074 76.9133 76.2261C76.3928 74.6055 75.1224 72.6179 75.1224 72.6179C75.1224 72.6179 73.9668 74.0012 73.0331 74.586Z" fill="#FEFEFE"/>
<path d="M75.1224 84.4267C74.1947 84.5306 72.7346 84.4267 72.7346 84.4267C72.7346 84.4267 72.1377 85.0828 72.1377 87.707C72.1377 90.0032 73.3316 91.9713 73.3316 91.9713C73.3316 91.9713 74.2642 92.519 74.8239 92.2994C75.2896 92.1166 75.7193 91.3153 75.7193 91.3153C75.7193 91.3153 75.6169 89.5004 76.3163 87.707C77.0156 85.9136 77.1093 85.5641 77.8086 83.7707C77.8086 83.7707 76.1915 84.307 75.1224 84.4267Z" fill="white"/>
<path d="M72.4363 54.9044C71.0448 54.7482 68.8546 54.9044 68.8546 54.9044L67.6608 61.1369C67.6608 61.1369 70.5876 60.8666 72.4363 61.1369C74.23 61.3992 76.9133 62.449 76.9133 62.449C76.9133 62.449 81.4296 66.7853 84.6735 69.0095C85.2502 69.4049 86.1659 69.9936 86.1659 69.9936L88.8521 70.9777L94.2245 76.2261L95.7169 74.914L93.6276 71.3057L87.6582 64.0892L84.6735 62.449C84.6735 62.449 77.8875 55.5164 72.4363 54.9044Z" fill="#18181C"/>
<path d="M45.8724 79.8344H47.9617L50.051 82.1306C50.051 82.1306 48.8543 83.1198 47.9617 83.4427C47.1788 83.7259 45.8724 83.7707 45.8724 83.7707V79.8344Z" fill="#191A1C"/>
<path d="M46.1709 82.5207C46.2227 81.2346 46.4694 79.2404 46.4694 79.2404C46.4694 79.2404 44.0816 78.5844 41.3954 81.5366C40.1702 82.8832 39.9031 86.129 39.9031 86.129C39.9031 86.129 41.9125 86.2729 43.1862 86.0669C44.3622 85.8766 46.1709 85.1449 46.1709 85.1449C46.1709 85.1449 46.1298 83.5445 46.1709 82.5207Z" fill="#FCFEFF"/>
<path d="M57.8112 86.7229L49.7526 75.5701L57.2143 71.3057L58.1097 75.242L59.6021 79.5064L63.1837 86.3949L61.3929 88.035L59.3036 89.3471L57.8112 86.7229Z" fill="#19191E"/>
<path d="M26.4719 57.5287C25.7266 57.7884 24.3826 58.5127 24.3826 58.5127C24.3826 58.5127 24.3453 63.1185 24.98 65.7293C25.6798 68.6079 27.9647 72.6178 27.9647 72.6178L32.4413 69.9936C32.4413 69.9936 30.5224 66.7072 29.7551 64.0892C29.0323 61.6232 28.8596 57.2006 28.8596 57.2006C28.8596 57.2006 27.2575 57.2549 26.4719 57.5287Z" fill="#191A1E"/>
<path d="M0.206633 61.1369C-7.10391 63.2468 -18 68.0255 -18 68.0255V100.5C-18 100.5 -3.63998 93.4804 5.28061 88.3631C14.8162 82.893 29.1582 73.2739 29.1582 73.2739C29.1582 73.2739 26.9986 68.4525 26.1735 65.0732C25.3528 61.7121 24.9796 56.2166 24.9796 56.2166C24.9796 56.2166 9.64765 58.4122 0.206633 61.1369Z" fill="white"/>
<path d="M29.1916 63.2216C28.3487 60.1453 28.5947 55.021 28.5947 55.021L41.4289 49.1165C41.4289 49.1165 49.4385 48.8544 54.5615 49.1165C60.4122 49.4159 69.485 50.7566 69.485 50.7566C69.485 50.7566 69.8965 53.9552 69.7835 56.005C69.6687 58.0866 68.8881 61.2535 68.8881 61.2535C68.8881 61.2535 70.5814 63.4043 71.5743 64.8617C72.8336 66.7104 74.559 69.7821 74.559 69.7821C74.559 69.7821 73.3484 71.0704 72.4697 71.7503C71.4884 72.5095 69.7835 73.3904 69.7835 73.3904V79.2949C69.7835 79.2949 68.511 79.5021 67.6942 79.6229C66.7628 79.7606 65.3064 79.9509 65.3064 79.9509C65.3064 79.9509 65.2121 78.1368 65.008 76.9987C64.7726 75.6865 64.1126 73.7184 64.1126 73.7184C64.1126 73.7184 65.9175 73.7383 66.7988 73.0624C67.2043 72.7513 67.6942 72.0783 67.6942 72.0783L67.9927 71.4222L66.7988 69.4541L64.411 72.0783C64.411 72.0783 63.8823 72.4472 63.5156 72.4063C63.0975 72.3597 62.6202 71.7503 62.6202 71.7503C62.6202 71.7503 62.3413 70.513 62.0233 69.7821C61.6606 68.9488 60.8294 67.814 60.8294 67.814C60.8294 67.814 60.357 69.0594 59.934 69.7821C59.5302 70.472 58.7401 71.4222 58.7401 71.4222L59.0052 73.2739C59.0052 73.2739 56.7172 73.3254 55.1251 73.7184C53.0373 74.2338 50.383 76.0146 50.383 76.0146L51.5768 77.6547C51.5768 77.6547 53.9302 75.5232 55.7554 75.0305C57.3401 74.6027 59.934 75.0305 59.934 75.0305C59.934 75.0305 60.5272 77.2925 61.1279 78.6388C61.868 80.2976 63.5156 82.5751 63.5156 82.5751C63.5156 82.5751 61.8269 84.557 60.5309 85.5273C59.2385 86.495 56.9493 87.4955 56.9493 87.4955C56.9493 87.4955 54.974 85.8622 53.9646 84.5433C53.153 83.4829 52.1738 81.591 52.1738 81.591L50.0845 83.2312C50.0845 83.2312 48.2923 81.6757 47.6967 80.2789C47.2408 79.2095 47.0998 77.3267 47.0998 77.3267L48.2937 76.3426C48.2937 76.3426 46.7237 74.4348 45.9059 73.0624C44.9064 71.3849 43.8166 68.47 43.8166 68.47L33.6687 71.4222C33.6687 71.4222 30.1716 66.7977 29.1916 63.2216Z" fill="white"/>
<path d="M71.5408 58.1847C71.3178 60.1582 70.3469 63.1051 70.3469 63.1051C70.3469 63.1051 73.5907 64.9742 75.7194 66.0573C78.4695 67.4567 82.8826 69.3376 82.8826 69.3376C82.8826 69.3376 84.9106 67.4001 85.5689 65.7293C86.178 64.1831 86.1658 61.465 86.1658 61.465C86.1658 61.465 84.9437 60.1944 84.0765 59.4968C82.4776 58.2105 81.3924 57.7997 79.5995 56.8726C76.5628 55.3023 71.5408 53.5923 71.5408 53.5923C71.5408 53.5923 71.7419 56.4049 71.5408 58.1847Z" fill="white"/>
<path d="M93.6276 75.2421C93.199 75.5682 92.4337 76.2261 92.4337 76.2261C92.4337 76.2261 93.0329 78.1354 93.9261 79.1784C94.9978 80.4299 96.2122 80.7893 96.3138 80.8185C96.4155 80.8477 98.3708 81.2017 98.7016 80.8185C98.881 80.6107 99 80.1624 99 80.1624C99 80.1624 97.8513 78.199 97.2092 76.8822C96.421 75.2655 95.4184 72.6179 95.4184 72.6179C95.4184 72.6179 94.5859 74.5129 93.6276 75.2421Z" fill="#FAFCF7"/>
<path d="M86.7627 67.3694C86.2844 68.6515 84.9719 70.3217 84.9719 70.3217C84.9719 70.3217 86.8539 71.1986 87.9566 71.9618C89.2197 72.836 90.9413 74.586 90.9413 74.586C90.9413 74.586 92.5625 73.8123 93.3291 72.9459C93.915 72.2836 94.5229 70.9777 94.5229 70.9777C94.5229 70.9777 93.7474 69.0832 93.0306 68.0255C91.9955 66.4982 91.2096 65.4391 89.7474 64.4172C88.8677 63.8023 87.3597 63.1051 87.3597 63.1051C87.3597 63.1051 87.3008 65.9275 86.7627 67.3694Z" fill="#FCFEFF"/>
<path d="M61.6914 88.035C60.7353 88.8321 59.0051 89.6751 59.0051 89.6751C59.0051 89.6751 60.1182 91.9441 60.4975 93.6114C60.9215 95.4756 60.7959 98.5318 60.7959 98.5318C60.7959 98.5318 63.0991 98.9626 64.0791 98.5318C65.5715 97.8758 66.1684 96.2721 66.4669 95.5796C66.6082 95.2516 67.4132 92.4437 66.4669 89.6751C65.852 87.8764 63.7806 85.7388 63.7806 85.7388C63.7806 85.7388 62.6106 87.2686 61.6914 88.035Z" fill="white"/>
<path d="M67.3622 81.4745C66.6537 81.5029 65.2729 81.4745 65.2729 81.4745C65.2729 81.4745 64.9831 82.7144 64.9744 83.7707C64.9635 85.1081 64.9879 86.4574 65.8698 87.379C66.1744 87.6972 66.345 88.035 66.7652 88.035C67.1855 88.035 67.6607 87.379 67.6607 87.379C67.6607 87.379 67.9469 85.5573 68.2576 84.4267C68.6205 83.106 69.7499 81.1465 69.7499 81.1465C69.7499 81.1465 68.2102 81.4406 67.3622 81.4745Z" fill="#FFFFFB"/>
<path d="M-2.47961 77.5382C-2.47961 77.5382 5.20051 73.1732 10.3546 70.9777C16.3714 68.4147 26.1734 65.7293 26.1734 65.7293" stroke="#989898" stroke-width="0.5" stroke-linecap="round"/>
<ellipse cx="-0.688813" cy="73.93" rx="1.19388" ry="1.3121" fill="#D4D8DB"/>
<ellipse cx="2.29593" cy="72.6178" rx="1.19388" ry="1.3121" fill="#D4D8DB"/>
<path d="M29.7551 63.1051L48.5587 56.5446H66.7653L69.4516 57.5286" stroke="#989898" stroke-width="0.5" stroke-linecap="round"/>
<path d="M50.9465 66.0573C48.0725 66.7825 43.7832 68.3535 43.7832 68.3535C43.7832 68.3535 40.5 68.3535 40.2016 63.7612C39.9457 59.8249 44.9487 56.5245 48.5587 56.2166C52.6673 55.866 57.8112 57.5287 57.8112 62.449C57.8112 63.6643 56.9158 64.7452 56.9158 64.7452C56.9158 64.7452 53.244 65.4777 50.9465 66.0573Z" fill="#191A1E"/>
<ellipse cx="34.5307" cy="64.7452" rx="1.19388" ry="1.3121" fill="#D5D7D6"/>
<ellipse cx="59.0052" cy="59.4968" rx="1.19388" ry="1.3121" fill="#D5D7D6"/>
<ellipse cx="54.2296" cy="71.9618" rx="0.596939" ry="0.656051" fill="#D5D7D6"/>
<ellipse cx="60.199" cy="83.1147" rx="0.596939" ry="0.656051" fill="#D5D7D6"/>
<ellipse cx="73.0331" cy="57.2006" rx="0.895408" ry="0.984076" fill="#D5D7D6"/>
<path d="M94.2245 74.914C94.2245 74.914 95.0262 76.9797 95.7168 78.1943C96.3346 79.2806 97.5077 80.8185 97.5077 80.8185" stroke="#A8A8A8" stroke-width="0.5" stroke-linecap="round"/>
<path d="M87.0613 66.3854C87.0613 66.3854 89.1482 68.0781 90.3444 69.3376C91.4768 70.5298 93.0307 72.6179 93.0307 72.6179" stroke="#A8A8A8" stroke-width="0.5" stroke-linecap="round"/>
<path d="M71.5408 58.5128C71.5408 58.5128 76.5735 59.9708 79.5994 61.465C82.0263 62.6633 85.5688 65.0733 85.5688 65.0733" stroke="#A8A8A8" stroke-width="0.5" stroke-linecap="round"/>
<path d="M74.824 84.4268C74.824 84.4268 74.1838 85.7885 73.9286 86.7229C73.4248 88.5674 73.6301 91.6433 73.6301 91.6433" stroke="#A8A8A8" stroke-width="0.5" stroke-linecap="round"/>
<path d="M73.0332 74.914C73.0332 74.914 74.108 77.2495 74.5255 78.8503C74.8847 80.2271 75.1225 82.4586 75.1225 82.4586" stroke="#A8A8A8" stroke-width="0.5" stroke-linecap="round"/>
<path d="M65.8699 87.051C65.8699 87.051 65.8294 85.1973 66.1684 84.0987C66.4702 83.1207 67.3623 81.8026 67.3623 81.8026M66.4668 63.7612C66.4668 63.7612 68.5025 66.5308 69.75 68.3535C70.703 69.746 72.1378 71.9618 72.1378 71.9618" stroke="#A8A8A8" stroke-width="0.5" stroke-linecap="round"/>
<path d="M66.4668 73.6019C66.4668 73.6019 67.1269 75.57 67.3622 76.8822C67.5663 78.0203 67.6607 79.5064 67.6607 79.5064" stroke="#A8A8A8" stroke-width="0.5" stroke-linecap="round"/>
<path d="M61.3928 88.035C61.3928 88.035 62.9431 91.1105 63.1836 93.2834C63.4245 95.4602 62.5867 98.8599 62.5867 98.8599" stroke="#A8A8A8" stroke-width="0.5" stroke-linecap="round"/>
<path d="M54.2296 76.2261C54.2296 76.2261 55.9084 78.5919 56.9158 80.1624C58.2757 82.2825 60.199 85.7389 60.199 85.7389" stroke="#989898" stroke-width="0.5" stroke-linecap="round"/>
<path d="M40.5 83.7707C40.5 83.7707 41.9204 83.0466 42.8878 82.7866C44.0257 82.4809 45.8724 82.4586 45.8724 82.4586" stroke="#A8A8A8" stroke-width="0.5" stroke-linecap="round"/>
<path d="M49.7526 66.3854C49.7526 66.3854 51.1196 70.5526 52.4388 72.6179C52.8676 73.2892 53.3342 73.93 53.3342 73.93" stroke="#989898" stroke-width="0.5" stroke-linecap="round"/>
</g>
<mask id="mask1_65_256" style="mask-type:alpha" maskUnits="userSpaceOnUse" x="0" y="0" width="181" height="180">
<ellipse cx="90.5" cy="90" rx="90.5" ry="90" fill="#291500"/>
</mask>
<g mask="url(#mask1_65_256)">
<path d="M64.9745 74.914L63.4822 70.9777L64.6761 67.6974H70.6454L73.3317 70.9777L76.3164 76.8822L76.6148 82.7866V85.0828H73.3317V83.4427L73.0332 81.4745L71.2424 75.8981L69.1531 72.9459L68.8546 71.3057L66.7653 69.0096L68.5562 71.9618L68.8546 78.8503V81.8025L67.0638 83.1146L66.4669 82.1306V79.8344L64.9745 74.914Z" fill="black"/>
<path d="M73.0331 74.586C72.0724 75.1877 70.3469 75.5701 70.3469 75.5701C70.3469 75.5701 70.898 77.3187 71.2423 78.5223C71.7022 80.1297 72.1377 82.7866 72.1377 82.7866C72.1377 82.7866 74.171 82.7976 75.4209 82.4586C76.3878 82.1964 77.8087 81.4745 77.8087 81.4745C77.8087 81.4745 77.5067 78.074 76.9133 76.2261C76.3928 74.6055 75.1224 72.6179 75.1224 72.6179C75.1224 72.6179 73.9668 74.0012 73.0331 74.586Z" fill="#D5D7D6"/>
<path d="M75.1224 84.4267C74.1947 84.5306 72.7346 84.4267 72.7346 84.4267C72.7346 84.4267 72.1377 85.0828 72.1377 87.707C72.1377 90.0032 73.3316 91.9713 73.3316 91.9713C73.3316 91.9713 74.2642 92.519 74.8239 92.2994C75.2896 92.1166 75.7193 91.3153 75.7193 91.3153C75.7193 91.3153 75.6169 89.5004 76.3163 87.707C77.0156 85.9136 77.1093 85.5641 77.8086 83.7707C77.8086 83.7707 76.1915 84.307 75.1224 84.4267Z" fill="#D5D7D6"/>
<path d="M72.4363 54.9044C71.0448 54.7482 68.8546 54.9044 68.8546 54.9044L67.6608 61.1369C67.6608 61.1369 70.5876 60.8666 72.4363 61.1369C74.23 61.3992 76.9133 62.449 76.9133 62.449C76.9133 62.449 81.4296 66.7853 84.6735 69.0095C85.2502 69.4049 86.1659 69.9936 86.1659 69.9936L88.8521 70.9777L94.2245 76.2261L95.7169 74.914L93.6276 71.3057L87.6582 64.0892L84.6735 62.449C84.6735 62.449 77.8875 55.5164 72.4363 54.9044Z" fill="#18181C"/>
<path d="M45.8724 79.8344H47.9617L50.051 82.1306C50.051 82.1306 48.8543 83.1198 47.9617 83.4427C47.1788 83.7259 45.8724 83.7707 45.8724 83.7707V79.8344Z" fill="#191A1C"/>
<path d="M46.1709 82.5207C46.2227 81.2346 46.4694 79.2404 46.4694 79.2404C46.4694 79.2404 44.0816 78.5844 41.3954 81.5366C40.1702 82.8832 39.9031 86.129 39.9031 86.129C39.9031 86.129 41.9125 86.2729 43.1862 86.0669C44.3622 85.8766 46.1709 85.1449 46.1709 85.1449C46.1709 85.1449 46.1298 83.5445 46.1709 82.5207Z" fill="#D5D7D6"/>
<path d="M57.8112 86.7229L49.7526 75.5701L57.2143 71.3057L58.1097 75.242L59.6021 79.5064L63.1837 86.3949L61.3929 88.035L59.3036 89.3471L57.8112 86.7229Z" fill="#19191E"/>
<path d="M26.4719 57.5287C25.7266 57.7884 24.3826 58.5127 24.3826 58.5127C24.3826 58.5127 24.3453 63.1185 24.98 65.7293C25.6798 68.6079 27.9647 72.6178 27.9647 72.6178L32.4413 69.9936C32.4413 69.9936 30.5224 66.7072 29.7551 64.0892C29.0323 61.6232 28.8596 57.2006 28.8596 57.2006C28.8596 57.2006 27.2575 57.2549 26.4719 57.5287Z" fill="#191A1E"/>
<path d="M0.206633 61.1369C-7.10391 63.2468 -18 68.0255 -18 68.0255V100.5C-18 100.5 -3.63998 93.4804 5.28061 88.3631C14.8162 82.893 29.1582 73.2739 29.1582 73.2739C29.1582 73.2739 26.9986 68.4525 26.1735 65.0732C25.3528 61.7121 24.9796 56.2166 24.9796 56.2166C24.9796 56.2166 9.64765 58.4122 0.206633 61.1369Z" fill="#D5D7D6"/>
<path d="M29.1916 63.2216C28.3487 60.1453 28.5947 55.021 28.5947 55.021L41.4289 49.1165C41.4289 49.1165 49.4385 48.8544 54.5615 49.1165C60.4122 49.4159 69.485 50.7566 69.485 50.7566C69.485 50.7566 69.8965 53.9552 69.7835 56.005C69.6687 58.0866 68.8881 61.2535 68.8881 61.2535C68.8881 61.2535 70.5814 63.4043 71.5743 64.8617C72.8336 66.7104 74.559 69.7821 74.559 69.7821C74.559 69.7821 73.3484 71.0704 72.4697 71.7503C71.4884 72.5095 69.7835 73.3904 69.7835 73.3904V79.2949C69.7835 79.2949 68.511 79.5021 67.6942 79.6229C66.7628 79.7606 65.3064 79.9509 65.3064 79.9509C65.3064 79.9509 65.2121 78.1368 65.008 76.9987C64.7726 75.6865 64.1126 73.7184 64.1126 73.7184C64.1126 73.7184 65.9175 73.7383 66.7988 73.0624C67.2043 72.7513 67.6942 72.0783 67.6942 72.0783L67.9927 71.4222L66.7988 69.4541L64.411 72.0783C64.411 72.0783 63.8823 72.4472 63.5156 72.4063C63.0975 72.3597 62.6202 71.7503 62.6202 71.7503C62.6202 71.7503 62.3413 70.513 62.0233 69.7821C61.6606 68.9488 60.8294 67.814 60.8294 67.814C60.8294 67.814 60.357 69.0594 59.934 69.7821C59.5302 70.472 58.7401 71.4222 58.7401 71.4222L59.0052 73.2739C59.0052 73.2739 56.7172 73.3254 55.1251 73.7184C53.0373 74.2338 50.383 76.0146 50.383 76.0146L51.5768 77.6547C51.5768 77.6547 53.9302 75.5232 55.7554 75.0305C57.3401 74.6027 59.934 75.0305 59.934 75.0305C59.934 75.0305 60.5272 77.2925 61.1279 78.6388C61.868 80.2976 63.5156 82.5751 63.5156 82.5751C63.5156 82.5751 61.8269 84.557 60.5309 85.5273C59.2385 86.495 56.9493 87.4955 56.9493 87.4955C56.9493 87.4955 54.974 85.8622 53.9646 84.5433C53.153 83.4829 52.1738 81.591 52.1738 81.591L50.0845 83.2312C50.0845 83.2312 48.2923 81.6757 47.6967 80.2789C47.2408 79.2095 47.0998 77.3267 47.0998 77.3267L48.2937 76.3426C48.2937 76.3426 46.7237 74.4348 45.9059 73.0624C44.9064 71.3849 43.8166 68.47 43.8166 68.47L33.6687 71.4222C33.6687 71.4222 30.1716 66.7977 29.1916 63.2216Z" fill="#D5D7D6"/>
<path d="M71.5408 58.1847C71.3178 60.1582 70.3469 63.1051 70.3469 63.1051C70.3469 63.1051 73.5907 64.9742 75.7194 66.0573C78.4695 67.4567 82.8826 69.3376 82.8826 69.3376C82.8826 69.3376 84.9106 67.4001 85.5689 65.7293C86.178 64.1831 86.1658 61.465 86.1658 61.465C86.1658 61.465 84.9437 60.1944 84.0765 59.4968C82.4776 58.2105 81.3924 57.7997 79.5995 56.8726C76.5628 55.3023 71.5408 53.5923 71.5408 53.5923C71.5408 53.5923 71.7419 56.4049 71.5408 58.1847Z" fill="#D5D7D6"/>
<path d="M93.6276 75.2421C93.199 75.5682 92.4337 76.2261 92.4337 76.2261C92.4337 76.2261 93.0329 78.1354 93.9261 79.1784C94.9978 80.4299 96.2122 80.7893 96.3138 80.8185C96.4155 80.8477 98.3708 81.2017 98.7016 80.8185C98.881 80.6107 99 80.1624 99 80.1624C99 80.1624 97.8513 78.199 97.2092 76.8822C96.421 75.2655 95.4184 72.6179 95.4184 72.6179C95.4184 72.6179 94.5859 74.5129 93.6276 75.2421Z" fill="#D5D7D6"/>
<path d="M86.7627 67.3694C86.2844 68.6515 84.9719 70.3217 84.9719 70.3217C84.9719 70.3217 86.8539 71.1986 87.9566 71.9618C89.2197 72.836 90.9413 74.586 90.9413 74.586C90.9413 74.586 92.5625 73.8123 93.3291 72.9459C93.915 72.2836 94.5229 70.9777 94.5229 70.9777C94.5229 70.9777 93.7474 69.0832 93.0306 68.0255C91.9955 66.4982 91.2096 65.4391 89.7474 64.4172C88.8677 63.8023 87.3597 63.1051 87.3597 63.1051C87.3597 63.1051 87.3008 65.9275 86.7627 67.3694Z" fill="#D5D7D6"/>
<path d="M61.6914 88.035C60.7353 88.8321 59.0051 89.6751 59.0051 89.6751C59.0051 89.6751 60.1182 91.9441 60.4975 93.6114C60.9215 95.4756 60.7959 98.5318 60.7959 98.5318C60.7959 98.5318 63.0991 98.9626 64.0791 98.5318C65.5715 97.8758 66.1684 96.2721 66.4669 95.5796C66.6082 95.2516 67.4132 92.4437 66.4669 89.6751C65.852 87.8764 63.7806 85.7388 63.7806 85.7388C63.7806 85.7388 62.6106 87.2686 61.6914 88.035Z" fill="#D5D7D6"/>
<path d="M67.3622 81.4745C66.6537 81.5029 65.2729 81.4745 65.2729 81.4745C65.2729 81.4745 64.9831 82.7144 64.9744 83.7707C64.9635 85.1081 64.9879 86.4574 65.8698 87.379C66.1744 87.6972 66.345 88.035 66.7652 88.035C67.1855 88.035 67.6607 87.379 67.6607 87.379C67.6607 87.379 67.9469 85.5573 68.2576 84.4267C68.6205 83.106 69.7499 81.1465 69.7499 81.1465C69.7499 81.1465 68.2102 81.4406 67.3622 81.4745Z" fill="#D5D7D6"/>
<path d="M-2.47961 77.5382C-2.47961 77.5382 5.20051 73.1732 10.3546 70.9777C16.3714 68.4147 26.1734 65.7293 26.1734 65.7293" stroke="white" stroke-width="0.5" stroke-linecap="round"/>
<ellipse cx="-0.688813" cy="73.93" rx="1.19388" ry="1.3121" fill="#D4D8DB"/>
<ellipse cx="2.29593" cy="72.6178" rx="1.19388" ry="1.3121" fill="white"/>
<path d="M29.7551 63.1051L48.5587 56.5446H66.7653L69.4516 57.5286" stroke="#989898" stroke-width="0.5" stroke-linecap="round"/>
<path d="M50.9465 66.0573C48.0725 66.7825 43.7832 68.3535 43.7832 68.3535C43.7832 68.3535 40.5 68.3535 40.2016 63.7612C39.9457 59.8249 44.9487 56.5245 48.5587 56.2166C52.6673 55.866 57.8112 57.5287 57.8112 62.449C57.8112 63.6643 56.9158 64.7452 56.9158 64.7452C56.9158 64.7452 53.244 65.4777 50.9465 66.0573Z" fill="#191A1E"/>
<ellipse cx="34.5307" cy="64.7452" rx="1.19388" ry="1.3121" fill="white"/>
<ellipse cx="59.0052" cy="59.4968" rx="1.19388" ry="1.3121" fill="white"/>
<ellipse cx="54.2296" cy="71.9618" rx="0.596939" ry="0.656051" fill="white"/>
<ellipse cx="60.199" cy="83.1147" rx="0.596939" ry="0.656051" fill="#D5D7D6"/>
<ellipse cx="73.0331" cy="57.2006" rx="0.895408" ry="0.984076" fill="white"/>
<path d="M94.2245 74.914C94.2245 74.914 95.0262 76.9797 95.7168 78.1943C96.3346 79.2806 97.5077 80.8185 97.5077 80.8185" stroke="#A8A8A8" stroke-width="0.5" stroke-linecap="round"/>
<path d="M87.0613 66.3854C87.0613 66.3854 89.1482 68.0781 90.3444 69.3376C91.4768 70.5298 93.0307 72.6179 93.0307 72.6179" stroke="#A8A8A8" stroke-width="0.5" stroke-linecap="round"/>
<path d="M71.5408 58.5128C71.5408 58.5128 76.5735 59.9708 79.5994 61.465C82.0263 62.6633 85.5688 65.0733 85.5688 65.0733" stroke="#A8A8A8" stroke-width="0.5" stroke-linecap="round"/>
<path d="M74.824 84.4268C74.824 84.4268 74.1838 85.7885 73.9286 86.7229C73.4248 88.5674 73.6301 91.6433 73.6301 91.6433" stroke="#A8A8A8" stroke-width="0.5" stroke-linecap="round"/>
<path d="M73.0332 74.914C73.0332 74.914 74.108 77.2495 74.5255 78.8503C74.8847 80.2271 75.1225 82.4586 75.1225 82.4586" stroke="#A8A8A8" stroke-width="0.5" stroke-linecap="round"/>
<path d="M65.8699 87.051C65.8699 87.051 65.8294 85.1973 66.1684 84.0987C66.4702 83.1207 67.3623 81.8026 67.3623 81.8026M66.4668 63.7612C66.4668 63.7612 68.5025 66.5308 69.75 68.3535C70.703 69.746 72.1378 71.9618 72.1378 71.9618" stroke="#A8A8A8" stroke-width="0.5" stroke-linecap="round"/>
<path d="M66.4668 73.6019C66.4668 73.6019 67.1269 75.57 67.3622 76.8822C67.5663 78.0203 67.6607 79.5064 67.6607 79.5064" stroke="#A8A8A8" stroke-width="0.5" stroke-linecap="round"/>
<path d="M61.3928 88.035C61.3928 88.035 62.9431 91.1105 63.1836 93.2834C63.4245 95.4602 62.5867 98.8599 62.5867 98.8599" stroke="#A8A8A8" stroke-width="0.5" stroke-linecap="round"/>
<path d="M54.2296 76.2261C54.2296 76.2261 55.9084 78.5919 56.9158 80.1624C58.2757 82.2825 60.199 85.7389 60.199 85.7389" stroke="#989898" stroke-width="0.5" stroke-linecap="round"/>
<path d="M40.5 83.7707C40.5 83.7707 41.9204 83.0466 42.8878 82.7866C44.0257 82.4809 45.8724 82.4586 45.8724 82.4586" stroke="#A8A8A8" stroke-width="0.5" stroke-linecap="round"/>
<path d="M49.7526 66.3854C49.7526 66.3854 51.1196 70.5526 52.4388 72.6179C52.8676 73.2892 53.3342 73.93 53.3342 73.93" stroke="#989898" stroke-width="0.5" stroke-linecap="round"/>
</g>
<mask id="mask2_65_256" style="mask-type:alpha" maskUnits="userSpaceOnUse" x="0" y="1" width="181" height="180">
<ellipse cx="90.5" cy="91" rx="90.5" ry="90" fill="#F8F4F0"/>
</mask>
<g mask="url(#mask2_65_256)">
<path d="M144.821 103.26L144.14 102.545L139.369 107.552C139.369 107.552 139.881 109.275 140.051 110.413C140.443 113.038 140.673 114.75 139.71 117.208C139.022 118.965 136.984 121.142 136.984 121.142C136.984 121.142 139.807 121.174 141.073 120.069C142.498 118.826 142.777 115.42 142.777 115.42C142.777 115.42 142.748 113.769 142.436 111.844C142.242 110.647 141.659 109.345 141.755 108.267C141.83 107.421 141.796 107.268 142.095 106.479C142.653 105.011 144.821 103.26 144.821 103.26Z" fill="#F5A491"/>
<path d="M205.476 83.2326C212.568 83.502 223.534 81.0868 223.534 81.0868V111.486C223.534 111.486 202.343 105.328 190.143 98.2534C187.846 96.9213 184.35 94.677 184.35 94.677C184.35 94.677 181.299 96.3607 179.239 97.1805C175.164 98.8028 172.69 99.9011 168.336 99.684C165.048 99.52 160.158 97.5381 160.158 97.5381C160.158 97.5381 159.632 98.5031 159.136 98.9687C158.779 99.3045 158.114 99.684 158.114 99.684C158.114 99.684 157.522 101.009 157.092 101.83C156.486 102.984 156.047 103.569 155.388 104.691C154.167 106.771 152.626 107.633 152.322 110.055C152.147 111.447 152.689 112.229 152.662 113.632C152.63 115.331 151.981 117.924 151.981 117.924L150.959 118.639L150.277 118.281C150.277 118.281 149.664 115.987 148.914 114.705C148.174 113.44 147.145 113.18 146.529 111.844C145.999 110.694 145.943 109.922 145.85 108.657L145.848 108.625C145.797 107.929 145.754 107.528 145.848 106.837C146.058 105.291 147.551 103.26 147.551 103.26C147.551 103.26 146.493 103.091 145.848 103.26C144.657 103.573 144.118 104.318 143.462 105.406C142.598 106.842 142.869 108.001 142.781 109.698C142.65 112.224 144.048 113.682 143.462 116.135C142.925 118.39 142.485 120.371 140.396 121.142C139.266 121.56 137.329 121.142 137.329 121.142C137.329 121.142 136.918 118.744 136.648 117.208C136.131 114.272 135.285 109.698 135.285 109.698C135.285 109.698 133.733 112.626 132.218 113.99C130.727 115.332 129.729 116.17 127.789 116.493C126.869 116.646 126.139 117.093 125.404 116.493C125.025 116.184 124.722 115.42 124.722 115.42C124.722 115.42 127.689 109.495 128.811 105.406C129.562 102.669 129.263 100.937 130.174 98.2534C130.415 97.5449 130.855 96.4652 130.855 96.4652C130.855 96.4652 136.277 93.0586 139.033 90.0277C141.404 87.4205 144.144 82.5173 144.144 82.5173C144.144 82.5173 142.68 82.362 141.759 82.1597C140.111 81.7978 137.67 80.7291 137.67 80.7291C137.67 80.7291 134.368 81.5263 132.218 81.8021C128.124 82.3273 121.656 81.8021 121.656 81.8021C121.656 81.8021 118.427 83.4475 116.204 83.9479C113.858 84.4758 110.071 84.3055 110.071 84.3055C110.071 84.3055 107.124 82.1051 107.004 80.0139C106.956 79.1658 107.345 77.868 107.345 77.868C107.345 77.868 111.319 77.1243 113.819 76.4375C116.384 75.7327 120.293 74.2917 120.293 74.2917C120.293 74.2917 125.316 73.378 128.47 72.5035C131.44 71.6799 135.966 70 135.966 70L147.551 72.1458C147.551 72.1458 155.303 75.1126 160.499 75.7222C164.466 76.1876 170.721 75.7222 170.721 75.7222C170.721 75.7222 176.599 78.6022 180.602 79.6562C184.893 80.7859 191.846 81.0868 191.846 81.0868C191.846 81.0868 200.097 83.0284 205.476 83.2326Z" fill="#E9C7AB"/>
<path d="M114.837 82.1597C112.103 82.7666 107.682 82.1597 107.682 82.1597L110.067 84.6632C110.067 84.6632 113.636 84.7664 115.859 84.3055C118.212 83.8176 121.652 82.1597 121.652 82.1597C121.652 82.1597 127.482 82.5223 131.192 82.1597C133.741 81.9106 137.666 81.0868 137.666 81.0868C137.666 81.0868 139.892 82.169 141.414 82.5173C142.721 82.8164 144.821 82.875 144.821 82.875C144.821 82.875 146.285 85.2659 147.206 86.809C148.285 88.6155 149.932 91.4583 149.932 91.4583C149.932 91.4583 147.154 94.247 145.162 95.7499C142.213 97.9747 139.277 97.4428 136.984 100.399C135.097 102.833 135.433 105.023 134.259 107.91C133.043 110.897 130.851 115.42 130.851 115.42C130.851 115.42 133.864 112.395 135.281 110.055C136.977 107.253 136.11 104.534 138.347 102.187C139.865 100.596 143.118 99.3263 143.118 99.3263C143.118 99.3263 149.811 96.5395 152.999 93.2465C155.524 90.638 158.11 85.3784 158.11 85.3784C158.11 85.3784 157.178 86.3665 156.406 86.4514C155.339 86.5687 154.951 85.5827 154.021 85.0208C152.419 84.0526 149.932 82.5173 149.932 82.5173C149.932 82.5173 144.924 81.7189 142.095 80.3715C140.516 79.619 138.347 78.5833 138.347 78.5833C138.347 78.5833 132.381 80.2631 128.466 80.3715C125.395 80.4565 120.629 79.6562 120.629 79.6562C120.629 79.6562 117.23 81.6283 114.837 82.1597Z" fill="#F7A897"/>
<path d="M145.503 97.8958C144.566 98.3007 143.118 98.9687 143.118 98.9687C143.118 98.9687 142.906 99.8864 143.118 100.399C143.382 101.04 144.481 101.472 144.481 101.472C144.481 101.472 146.407 101.233 147.547 100.757C148.544 100.34 149.932 99.3263 149.932 99.3263C149.932 99.3263 148.508 98.9274 147.888 98.2534C147.555 97.8911 147.206 97.1805 147.206 97.1805C147.206 97.1805 146.165 97.6094 145.503 97.8958Z" fill="#F0F3F8"/>
<path d="M126.081 112.559L124.718 115.42C124.718 115.42 124.57 115.903 124.718 116.135C124.94 116.484 125.74 116.135 125.74 116.135C125.74 116.135 127.499 115.097 128.125 113.99C128.686 112.999 128.807 111.128 128.807 111.128C128.807 111.128 128.399 110.894 128.125 110.771C127.739 110.597 127.103 110.413 127.103 110.413L126.081 112.559Z" fill="#F3F2F1"/>
<path d="M111.43 76.7951C109.805 77.0757 107.378 77.7324 107.341 77.8681C107.273 78.1171 110.236 78.7498 112.111 78.5833C113.623 78.4491 115.859 77.5104 115.859 77.5104V76.4375C115.859 76.4375 113.141 76.4995 111.43 76.7951Z" fill="#F2F3F5"/>
<path d="M180.727 90.743L224 92.8889V112.201L201.512 104.333L185.157 95.3923C185.157 95.3923 180.687 97.6474 177.66 98.6111C174.289 99.6845 172.324 100.456 168.801 100.399C165.54 100.347 160.624 98.6111 160.624 98.6111C160.624 98.6111 160.293 99.3401 159.942 99.684C159.508 100.111 158.58 100.399 158.58 100.399C158.58 100.399 157.008 103.508 155.854 105.406C154.622 107.432 152.446 110.413 152.446 110.413C152.446 110.413 153.128 112.786 153.128 114.347C153.128 115.909 152.446 118.281 152.446 118.281C152.446 118.281 151.988 119.389 151.424 119.354C151.127 119.336 150.743 118.996 150.743 118.996C150.743 118.996 150.189 116.459 149.38 115.062C148.402 113.375 145.972 111.486 145.972 111.486C145.972 111.486 145.682 109.273 145.972 107.91C146.376 106.016 148.358 103.618 148.358 103.618C148.358 103.618 151.787 102.563 153.809 101.472C156.437 100.055 159.942 96.8229 159.942 96.8229C159.942 96.8229 168.534 96.6651 173.572 94.6771C176.524 93.5119 180.727 90.743 180.727 90.743Z" fill="#F2A591"/>
<path d="M146.184 103.618L145.503 102.903L140.732 107.91C140.732 107.91 141.244 109.633 141.414 110.771C141.806 113.396 142.035 115.108 141.073 117.566C140.385 119.323 138.347 121.5 138.347 121.5C138.347 121.5 141.17 121.531 142.436 120.427C143.861 119.183 144.14 115.778 144.14 115.778C144.14 115.778 144.111 114.127 143.799 112.201C143.605 111.005 143.022 109.703 143.118 108.625C143.193 107.779 143.159 107.626 143.458 106.837C144.016 105.369 146.184 103.618 146.184 103.618Z" fill="#F5A491"/>
</g>
</svg>
