<svg width="181" height="180" viewBox="0 0 181 180" fill="none" xmlns="http://www.w3.org/2000/svg">
<ellipse cx="90.5" cy="90" rx="90.5" ry="90" fill="#F8F4F0"/>
<mask id="mask0_65_257" style="mask-type:alpha" maskUnits="userSpaceOnUse" x="0" y="0" width="181" height="180">
<ellipse cx="90.5" cy="90" rx="90.5" ry="90" fill="#291500"/>
</mask>
<g mask="url(#mask0_65_257)">
<path d="M64.9745 74.914L63.4821 70.9777L64.676 67.6974H70.6454L73.3316 70.9777L76.3163 76.8822L76.6148 82.7866V85.0828H73.3316V83.4427L73.0331 81.4745L71.2423 75.8981L69.153 72.9459L68.8546 71.3057L66.7653 69.0096L68.5561 71.9618L68.8546 78.8503V81.8025L67.0637 83.1146L66.4668 82.1306V79.8344L64.9745 74.914Z" fill="black"/>
<path d="M73.0331 74.586C72.0724 75.1877 70.3469 75.5701 70.3469 75.5701C70.3469 75.5701 70.898 77.3187 71.2423 78.5223C71.7022 80.1297 72.1377 82.7866 72.1377 82.7866C72.1377 82.7866 74.171 82.7976 75.4209 82.4586C76.3878 82.1964 77.8087 81.4745 77.8087 81.4745C77.8087 81.4745 77.5067 78.074 76.9133 76.2261C76.3928 74.6055 75.1224 72.6179 75.1224 72.6179C75.1224 72.6179 73.9668 74.0012 73.0331 74.586Z" fill="#D5D7D6"/>
<path d="M75.1225 84.4267C74.1948 84.5306 72.7347 84.4267 72.7347 84.4267C72.7347 84.4267 72.1378 85.0828 72.1378 87.707C72.1378 90.0032 73.3316 91.9713 73.3316 91.9713C73.3316 91.9713 74.2643 92.519 74.824 92.2994C75.2897 92.1166 75.7194 91.3153 75.7194 91.3153C75.7194 91.3153 75.617 89.5004 76.3163 87.707C77.0157 85.9136 77.1093 85.5641 77.8087 83.7707C77.8087 83.7707 76.1915 84.307 75.1225 84.4267Z" fill="#D5D7D6"/>
<path d="M72.4362 54.9044C71.0447 54.7482 68.8546 54.9044 68.8546 54.9044L67.6607 61.1369C67.6607 61.1369 70.5876 60.8666 72.4362 61.1369C74.2299 61.3992 76.9133 62.449 76.9133 62.449C76.9133 62.449 81.4296 66.7853 84.6735 69.0095C85.2501 69.4049 86.1658 69.9936 86.1658 69.9936L88.852 70.9777L94.2245 76.2261L95.7168 74.914L93.6275 71.3057L87.6582 64.0892L84.6735 62.449C84.6735 62.449 77.8874 55.5164 72.4362 54.9044Z" fill="#18181C"/>
<path d="M45.8724 79.8344H47.9617L50.051 82.1306C50.051 82.1306 48.8543 83.1198 47.9617 83.4427C47.1788 83.7259 45.8724 83.7707 45.8724 83.7707V79.8344Z" fill="#191A1C"/>
<path d="M46.1709 82.5207C46.2227 81.2346 46.4694 79.2404 46.4694 79.2404C46.4694 79.2404 44.0816 78.5844 41.3954 81.5366C40.1702 82.8832 39.9031 86.129 39.9031 86.129C39.9031 86.129 41.9125 86.2729 43.1862 86.0669C44.3622 85.8766 46.1709 85.1449 46.1709 85.1449C46.1709 85.1449 46.1298 83.5445 46.1709 82.5207Z" fill="#D5D7D6"/>
<path d="M57.8112 86.7229L49.7526 75.5701L57.2143 71.3057L58.1097 75.242L59.6021 79.5064L63.1837 86.3949L61.3929 88.035L59.3036 89.3471L57.8112 86.7229Z" fill="#19191E"/>
<path d="M26.4719 57.5287C25.7266 57.7884 24.3826 58.5127 24.3826 58.5127C24.3826 58.5127 24.3453 63.1185 24.98 65.7293C25.6798 68.6079 27.9647 72.6178 27.9647 72.6178L32.4413 69.9936C32.4413 69.9936 30.5224 66.7072 29.7551 64.0892C29.0323 61.6232 28.8596 57.2006 28.8596 57.2006C28.8596 57.2006 27.2575 57.2549 26.4719 57.5287Z" fill="#191A1E"/>
<path d="M0.206633 61.1369C-7.10391 63.2468 -18 68.0255 -18 68.0255V100.5C-18 100.5 -3.63998 93.4804 5.28061 88.3631C14.8162 82.893 29.1582 73.2739 29.1582 73.2739C29.1582 73.2739 26.9986 68.4525 26.1735 65.0732C25.3528 61.7121 24.9796 56.2166 24.9796 56.2166C24.9796 56.2166 9.64765 58.4122 0.206633 61.1369Z" fill="#D5D7D6"/>
<path d="M29.1916 63.2216C28.3486 60.1453 28.5946 55.021 28.5946 55.021L41.4288 49.1165C41.4288 49.1165 49.4384 48.8544 54.5615 49.1165C60.4122 49.4159 69.4849 50.7566 69.4849 50.7566C69.4849 50.7566 69.8964 53.9552 69.7834 56.005C69.6687 58.0866 68.888 61.2535 68.888 61.2535C68.888 61.2535 70.5814 63.4043 71.5742 64.8617C72.8336 66.7104 74.5589 69.7821 74.5589 69.7821C74.5589 69.7821 73.3483 71.0704 72.4696 71.7503C71.4884 72.5095 69.7834 73.3904 69.7834 73.3904V79.2949C69.7834 79.2949 68.511 79.5021 67.6941 79.6229C66.7628 79.7606 65.3064 79.9509 65.3064 79.9509C65.3064 79.9509 65.212 78.1368 65.0079 76.9987C64.7726 75.6865 64.1125 73.7184 64.1125 73.7184C64.1125 73.7184 65.9175 73.7383 66.7987 73.0624C67.2043 72.7513 67.6941 72.0783 67.6941 72.0783L67.9926 71.4222L66.7987 69.4541L64.411 72.0783C64.411 72.0783 63.8823 72.4472 63.5156 72.4063C63.0974 72.3597 62.6201 71.7503 62.6201 71.7503C62.6201 71.7503 62.3413 70.513 62.0232 69.7821C61.6606 68.9488 60.8293 67.814 60.8293 67.814C60.8293 67.814 60.357 69.0594 59.9339 69.7821C59.5301 70.472 58.74 71.4222 58.74 71.4222L59.0051 73.2739C59.0051 73.2739 56.7172 73.3254 55.125 73.7184C53.0373 74.2338 50.3829 76.0146 50.3829 76.0146L51.5768 77.6547C51.5768 77.6547 53.9301 75.5232 55.7554 75.0305C57.3401 74.6027 59.9339 75.0305 59.9339 75.0305C59.9339 75.0305 60.5272 77.2925 61.1278 78.6388C61.8679 80.2976 63.5156 82.5751 63.5156 82.5751C63.5156 82.5751 61.8268 84.557 60.5309 85.5273C59.2385 86.495 56.9492 87.4955 56.9492 87.4955C56.9492 87.4955 54.974 85.8622 53.9645 84.5433C53.1529 83.4829 52.1737 81.591 52.1737 81.591L50.0844 83.2312C50.0844 83.2312 48.2922 81.6757 47.6967 80.2789C47.2407 79.2095 47.0997 77.3267 47.0997 77.3267L48.2936 76.3426C48.2936 76.3426 46.7236 74.4348 45.9059 73.0624C44.9063 71.3849 43.8166 68.47 43.8166 68.47L33.6686 71.4222C33.6686 71.4222 30.1715 66.7977 29.1916 63.2216Z" fill="#D5D7D6"/>
<path d="M71.5408 58.1847C71.3178 60.1582 70.3469 63.1051 70.3469 63.1051C70.3469 63.1051 73.5907 64.9742 75.7194 66.0573C78.4695 67.4567 82.8826 69.3376 82.8826 69.3376C82.8826 69.3376 84.9106 67.4001 85.5689 65.7293C86.178 64.1831 86.1658 61.465 86.1658 61.465C86.1658 61.465 84.9437 60.1944 84.0765 59.4968C82.4776 58.2105 81.3924 57.7997 79.5995 56.8726C76.5628 55.3023 71.5408 53.5923 71.5408 53.5923C71.5408 53.5923 71.7419 56.4049 71.5408 58.1847Z" fill="#D5D7D6"/>
<path d="M93.6275 75.2421C93.1989 75.5682 92.4337 76.2261 92.4337 76.2261C92.4337 76.2261 93.0329 78.1354 93.926 79.1784C94.9978 80.4299 96.2121 80.7893 96.3138 80.8185C96.4154 80.8477 98.3707 81.2017 98.7015 80.8185C98.8809 80.6107 99 80.1624 99 80.1624C99 80.1624 97.8512 78.199 97.2092 76.8822C96.4209 75.2655 95.4183 72.6179 95.4183 72.6179C95.4183 72.6179 94.5859 74.5129 93.6275 75.2421Z" fill="#D5D7D6"/>
<path d="M86.7627 67.3694C86.2844 68.6515 84.9719 70.3217 84.9719 70.3217C84.9719 70.3217 86.8539 71.1986 87.9566 71.9618C89.2197 72.836 90.9413 74.586 90.9413 74.586C90.9413 74.586 92.5625 73.8123 93.3291 72.9459C93.915 72.2836 94.5229 70.9777 94.5229 70.9777C94.5229 70.9777 93.7474 69.0832 93.0306 68.0255C91.9955 66.4982 91.2096 65.4391 89.7474 64.4172C88.8677 63.8023 87.3597 63.1051 87.3597 63.1051C87.3597 63.1051 87.3008 65.9275 86.7627 67.3694Z" fill="#D5D7D6"/>
<path d="M61.6914 88.035C60.7353 88.8321 59.0051 89.6751 59.0051 89.6751C59.0051 89.6751 60.1182 91.9441 60.4975 93.6114C60.9215 95.4756 60.7959 98.5318 60.7959 98.5318C60.7959 98.5318 63.0991 98.9626 64.0791 98.5318C65.5715 97.8758 66.1684 96.2721 66.4669 95.5796C66.6082 95.2516 67.4132 92.4437 66.4669 89.6751C65.852 87.8764 63.7806 85.7388 63.7806 85.7388C63.7806 85.7388 62.6106 87.2686 61.6914 88.035Z" fill="#D5D7D6"/>
<path d="M67.3622 81.4745C66.6537 81.5029 65.273 81.4745 65.273 81.4745C65.273 81.4745 64.9832 82.7144 64.9745 83.7707C64.9635 85.1081 64.988 86.4574 65.8699 87.379C66.1745 87.6972 66.345 88.035 66.7653 88.035C67.1856 88.035 67.6607 87.379 67.6607 87.379C67.6607 87.379 67.947 85.5573 68.2577 84.4267C68.6206 83.106 69.75 81.1465 69.75 81.1465C69.75 81.1465 68.2103 81.4406 67.3622 81.4745Z" fill="#D5D7D6"/>
<path d="M-2.47961 77.5382C-2.47961 77.5382 5.20051 73.1732 10.3546 70.9777C16.3714 68.4147 26.1734 65.7293 26.1734 65.7293" stroke="white" stroke-width="0.5" stroke-linecap="round"/>
<ellipse cx="-0.688752" cy="73.93" rx="1.19388" ry="1.3121" fill="#D4D8DB"/>
<ellipse cx="2.29593" cy="72.6178" rx="1.19388" ry="1.3121" fill="white"/>
<path d="M29.7551 63.1051L48.5587 56.5446H66.7653L69.4516 57.5286" stroke="#989898" stroke-width="0.5" stroke-linecap="round"/>
<path d="M50.9465 66.0573C48.0725 66.7825 43.7832 68.3535 43.7832 68.3535C43.7832 68.3535 40.5 68.3535 40.2016 63.7612C39.9457 59.8249 44.9487 56.5245 48.5587 56.2166C52.6673 55.866 57.8112 57.5287 57.8112 62.449C57.8112 63.6643 56.9158 64.7452 56.9158 64.7452C56.9158 64.7452 53.244 65.4777 50.9465 66.0573Z" fill="#191A1E"/>
<ellipse cx="34.5306" cy="64.7452" rx="1.19388" ry="1.3121" fill="white"/>
<ellipse cx="59.0051" cy="59.4968" rx="1.19388" ry="1.3121" fill="white"/>
<ellipse cx="54.2296" cy="71.9618" rx="0.596939" ry="0.656051" fill="white"/>
<ellipse cx="60.199" cy="83.1147" rx="0.596939" ry="0.656051" fill="#D5D7D6"/>
<ellipse cx="73.0332" cy="57.2006" rx="0.895408" ry="0.984076" fill="white"/>
<path d="M94.2245 74.914C94.2245 74.914 95.0262 76.9797 95.7168 78.1943C96.3346 79.2806 97.5077 80.8185 97.5077 80.8185" stroke="#A8A8A8" stroke-width="0.5" stroke-linecap="round"/>
<path d="M87.0612 66.3854C87.0612 66.3854 89.1481 68.0781 90.3444 69.3376C91.4768 70.5298 93.0306 72.6179 93.0306 72.6179" stroke="#A8A8A8" stroke-width="0.5" stroke-linecap="round"/>
<path d="M71.5408 58.5128C71.5408 58.5128 76.5736 59.9708 79.5995 61.465C82.0263 62.6633 85.5689 65.0733 85.5689 65.0733" stroke="#A8A8A8" stroke-width="0.5" stroke-linecap="round"/>
<path d="M74.824 84.4268C74.824 84.4268 74.1838 85.7885 73.9286 86.7229C73.4248 88.5674 73.6301 91.6433 73.6301 91.6433" stroke="#A8A8A8" stroke-width="0.5" stroke-linecap="round"/>
<path d="M73.0331 74.914C73.0331 74.914 74.1079 77.2495 74.5255 78.8503C74.8846 80.2271 75.1224 82.4586 75.1224 82.4586" stroke="#A8A8A8" stroke-width="0.5" stroke-linecap="round"/>
<path d="M65.8699 87.051C65.8699 87.051 65.8294 85.1973 66.1683 84.0987C66.4701 83.1207 67.3622 81.8026 67.3622 81.8026M66.4668 63.7612C66.4668 63.7612 68.5025 66.5308 69.7499 68.3535C70.7029 69.746 72.1377 71.9618 72.1377 71.9618" stroke="#A8A8A8" stroke-width="0.5" stroke-linecap="round"/>
<path d="M66.4669 73.6019C66.4669 73.6019 67.1269 75.57 67.3623 76.8822C67.5664 78.0203 67.6607 79.5064 67.6607 79.5064" stroke="#A8A8A8" stroke-width="0.5" stroke-linecap="round"/>
<path d="M61.3929 88.035C61.3929 88.035 62.9432 91.1105 63.1837 93.2834C63.4246 95.4602 62.5868 98.8599 62.5868 98.8599" stroke="#A8A8A8" stroke-width="0.5" stroke-linecap="round"/>
<path d="M54.2296 76.2261C54.2296 76.2261 55.9084 78.5919 56.9158 80.1624C58.2757 82.2825 60.199 85.7389 60.199 85.7389" stroke="#989898" stroke-width="0.5" stroke-linecap="round"/>
<path d="M40.5 83.7707C40.5 83.7707 41.9204 83.0466 42.8878 82.7866C44.0257 82.4809 45.8724 82.4586 45.8724 82.4586" stroke="#A8A8A8" stroke-width="0.5" stroke-linecap="round"/>
<path d="M49.7526 66.3854C49.7526 66.3854 51.1196 70.5526 52.4388 72.6179C52.8676 73.2892 53.3342 73.93 53.3342 73.93" stroke="#989898" stroke-width="0.5" stroke-linecap="round"/>
</g>
</svg>
