<svg width="122" height="154" viewBox="0 0 122 154" fill="none" xmlns="http://www.w3.org/2000/svg">
<path d="M46.9205 142.647C45.2114 146.901 41.7422 153.182 41.7422 153.182H87.8823C87.8823 153.182 87.8086 147.089 88.2186 143.217C88.5437 140.147 89.4965 135.415 89.4965 135.415C89.4965 135.415 90.474 134.337 91.0435 133.599C93.4704 130.457 93.7495 128.024 95.4825 124.452C98.0052 119.252 99.9495 116.561 101.939 111.135C103.618 106.558 104.118 104.258 105.24 99.5146C106.099 95.8852 106.518 93.4159 107.186 89.7465L107.228 89.5111C107.669 87.0901 107.929 85.6605 108.262 83.1552C108.776 79.2868 108.291 77.2602 109.136 73.4505C109.703 70.8959 110.245 69.2651 111.154 66.8113C111.976 64.5927 112.691 63.4494 113.508 61.2288C114.251 59.2097 114.518 58.0267 115.189 55.9827C115.933 53.7178 116.381 52.4584 117.14 50.1984C118.223 46.9699 119.004 45.2118 119.897 41.9256C120.625 39.2507 121.444 34.998 121.444 34.998C121.444 34.998 121.444 32.3185 118.283 31.097C115.122 29.8754 113.508 31.9713 113.508 31.9713C113.508 31.9713 112.805 33.4855 112.364 34.4599C111.055 37.3538 110.388 39.0061 109.136 41.9256C107.652 45.3872 107.049 47.4326 105.37 50.8038C104.342 52.8659 103.779 53.8715 102.857 55.9827C101.352 59.428 101.513 62.1935 99.3967 65.3006C98.9648 65.9346 98.7782 66.8113 98.7782 66.8113C98.7782 66.8113 97.7012 66.9346 97.0295 66.8113C95.5749 66.5444 93.8683 64.7263 93.8683 64.7263C93.8683 64.7263 93.6001 62.8047 93.532 61.5651C93.3396 58.0628 93.8928 56.0988 94.3391 52.6197C94.7353 49.5317 95.3855 47.8553 95.617 44.7505C95.8163 42.0788 95.617 40.5692 95.617 37.8901C95.617 33.3461 95.8249 30.7936 95.617 26.2543C95.4652 22.9379 95.3013 21.0805 94.9445 17.7798C94.6997 15.5157 94.2046 11.9955 94.2046 11.9955C94.2046 11.9955 92.6855 7.774 88.8239 8.22903C84.9623 8.68405 84.3848 11.6028 84.3848 11.6028C84.3848 11.6028 84.3463 14.6066 84.3848 16.5353C84.4457 19.58 84.5249 21.2866 84.3848 24.3287C84.222 27.8674 84.2999 29.8704 83.8468 33.3838C83.412 36.7557 82.4515 39.5393 82.1653 42.927C81.946 45.523 82.1208 45.9918 82.1653 48.5966C82.2227 51.9559 82.5016 57.1933 82.5016 57.1933C82.5016 57.1933 82.0049 57.7869 81.56 57.8659C80.9585 57.9728 80.1476 57.1933 80.1476 57.1933C80.1476 57.1933 79.6177 53.5123 79.4077 51.1401C78.8518 44.8607 79.8586 41.2857 79.4077 34.998C79.1076 30.8123 78.5122 28.5076 78.1298 24.3287C77.6762 19.3712 77.498 16.5798 77.3899 11.6028C77.3254 8.63117 77.3899 3.99174 77.3899 3.99174C77.3899 3.99174 76.0811 -0.0945179 72.0765 0.561554C68.072 1.21763 67.1818 3.02357 67.1818 3.02357C67.1818 3.02357 66.7587 5.85771 66.5613 7.06486C65.9632 10.7223 66.0673 12.831 65.956 16.5353C65.8569 19.8303 65.5444 21.0328 65.4852 24.3287C65.4063 28.7183 65.1972 31.8278 65.4852 36.2086C65.7489 40.2202 66.0868 42.3799 66.4129 46.3869C66.7326 50.3138 67.1666 56.4535 67.1666 56.4535C67.1666 56.4535 66.1274 56.5905 65.4852 56.4535C64.5829 56.261 63.4209 55.3048 63.4209 55.3048C63.4209 55.3048 62.3988 51.0353 61.8767 48.3859C61.1635 44.7665 61.3428 42.8298 60.56 39.2249C60.094 37.0786 59.6106 35.9304 59.0803 33.7991C58.1976 30.2519 57.8164 28.1812 57.1729 24.685L57.1073 24.3287C56.5487 21.2953 56.5213 19.5401 55.8248 16.5353C55.1807 13.7566 53.7532 9.53118 53.7532 9.53118C53.7532 9.53118 52.291 6.21694 48.722 7.06486C45.153 7.91278 44.48 11.6028 44.48 11.6028C44.48 11.6028 44.3878 15.4525 44.48 17.9164C44.6088 21.3565 44.9934 23.2647 45.2692 26.6962C45.6343 31.238 45.4144 33.8263 46.0584 38.3369C46.7336 43.0652 47.817 45.5839 48.722 50.2736C49.4697 54.1479 50.399 58.996 50.399 58.996C50.399 58.996 50.9584 67.4264 50.399 71.9767C50.2229 73.4099 49.8071 75.6267 49.8071 75.6267C49.8071 75.6267 47.8969 81.4765 45.1349 83.4201C43.1785 84.7968 42.529 85.1135 40.1394 84.9985C38.7579 84.9319 38.0039 84.6314 36.6867 84.2093C33.2361 83.1034 31.6274 81.6197 28.7075 79.4741C26.2489 77.6674 25.2776 76.1456 22.8151 74.3443C20.5702 72.7021 19.3489 71.6106 16.7594 70.5956C12.9012 69.0833 10.1298 68.1843 6.20381 69.5104C4.0062 70.2527 2.21212 70.5936 1.1724 72.6671C0.274447 74.4579 0.676135 77.0381 1.1724 77.7969C1.66867 78.5557 4.74154 79.1129 6.82688 80.447C8.48162 81.5057 9.29364 82.209 10.8403 83.4201C12.5229 84.7376 15.3784 86.4782 15.3784 86.4782C15.3784 86.4782 19.6895 89.4189 22.2039 92.0567C25.1265 95.1227 26.3906 98.1062 29.2774 101.206C32.6529 104.831 34.9534 105.518 38.5036 108.971C41.2045 111.599 42.6052 113.249 45.1349 116.042C47.3858 118.527 51.2059 122.113 51.2059 122.113C51.2059 122.113 51.3874 125.711 51.2059 128.005C50.7357 133.944 49.1416 137.119 46.9205 142.647Z" fill="#E9C7AB"/>
<path d="M83.4585 42.2557C83.4585 42.2557 86.6684 43.0848 88.77 43.1273C90.6092 43.1646 93.455 42.6371 93.455 42.6371M91.6845 43.8628C91.6845 43.8628 92.9099 43.8127 93.6729 43.6449C94.061 43.5595 94.6534 43.3725 94.6534 43.3725M85.6103 26.2941C85.6103 26.2941 88.4494 25.6631 90.2953 25.6676C91.8048 25.6713 94.1359 26.1034 94.1359 26.1034" stroke="#763704" stroke-width="0.4" stroke-linecap="round"/>
<path d="M82.6685 56.0383C82.6685 56.0383 85.0074 56.9553 86.5366 57.4547C88.0311 57.9428 90.4043 58.5715 90.4043 58.5715" stroke="#763704" stroke-width="0.4" stroke-linecap="round"/>
<path d="M67.6475 54.1233C67.6475 54.1233 70.249 54.7371 71.9487 54.8618C73.2348 54.9561 75.2508 54.8618 75.2508 54.8618" stroke="#763704" stroke-width="0.4" stroke-linecap="round"/>
<path d="M102.47 57.0365C100.858 62.1038 98.8931 66.3168 98.8931 66.3168C98.8931 66.3168 100.822 66.7815 101.901 66.3168C103.628 65.5729 103.309 63.7398 104.118 62.0418C106.009 58.0684 106.912 53.9468 108.868 48.8212C110.865 43.5862 112.019 40.6608 114.251 35.5214C115.128 33.5032 116.547 30.3757 116.547 30.3757C116.547 30.3757 114.274 30.8823 113.462 32.2253C112.987 33.0104 109.954 39.9992 107.966 44.5262C105.907 49.2138 104.081 51.9692 102.47 57.0365Z" fill="#F2A591"/>
<path d="M107.705 45.9316C107.705 45.9316 110.881 46.3644 112.782 47.0868C114.504 47.7415 116.946 49.3059 116.946 49.3059M103.997 57.2093C103.997 57.2093 106.566 57.3709 108.1 57.9085C109.173 58.2842 110.714 59.1852 110.714 59.1852M104.301 58.5468C104.301 58.5468 107.164 59.1692 108.951 59.7323C109.947 60.046 111.474 60.6139 111.474 60.6139" stroke="#763704" stroke-width="0.4" stroke-linecap="round"/>
<path d="M82.3701 57.5804C82.3701 57.5804 83.9932 58.9723 85.2015 59.5246C87.2124 60.4438 90.622 61.159 90.622 61.159" stroke="#763704" stroke-width="0.4" stroke-linecap="round"/>
<path d="M47.5161 42.039C47.5161 42.039 51.8565 40.8902 54.5728 39.9519C56.1894 39.3934 57.2169 39.3092 58.6727 38.4113C58.9407 38.246 59.3435 37.964 59.3435 37.964" stroke="#763704" stroke-width="0.4" stroke-linecap="round"/>
<path d="M52.7476 73.1846C52.7476 73.1846 56.4992 75.5368 58.5972 77.4225C61.7028 80.2139 63.183 82.1452 65.342 85.7194C66.5817 87.7718 67.2287 88.9724 68.0877 91.2109C69.222 94.1668 69.9978 99.09 69.9978 99.09" stroke="#763704" stroke-width="0.4" stroke-linecap="round"/>
<path d="M47.871 17.9196C47.9816 13.9796 48.04 7.74072 48.04 7.74072C48.04 7.74072 46.3355 8.34705 45.2945 10.0859C44.03 12.1979 44.41 16.9757 44.41 16.9757C44.41 16.9757 44.5554 29.8202 45.7753 38.3156C46.9268 46.3343 49.301 51.1043 49.999 59.1751C50.4597 64.5017 50.2457 72.2623 50.2457 72.2623C50.2457 72.2623 52.4543 70.0904 53.319 68.3508C55.2132 64.5403 53.6401 61.6975 53.319 57.4543C52.8371 51.0848 51.2187 47.7021 50.2457 41.389C48.8425 32.2843 47.6124 27.1282 47.871 17.9196Z" fill="#F2A591"/>
<path d="M69.8897 12.4522C69.8897 7.18339 70.5651 0.974937 70.5651 0.974937C70.5651 0.974937 69.0678 1.4302 68.2 2.12465C67.5216 2.6675 67.0615 3.78648 66.8203 4.62117C66.3933 6.09938 66.2988 9.92407 66.0023 13.8107C65.3453 22.4246 65.0881 27.2631 65.4735 35.8933C65.8287 43.8484 67.2146 55.9969 67.2146 55.9969C67.2146 55.9969 68.2872 56.3016 69.1804 55.2595C70.3102 53.9414 71.0202 52.3769 71.001 50.641C70.9188 43.2114 70.1078 39.0745 69.8897 31.6476C69.6697 24.1546 69.8897 19.9485 69.8897 12.4522Z" fill="#F2A591"/>
<path d="M82.2516 42.6763C81.713 48.3363 82.4671 57.0734 82.4671 57.0734C82.4671 57.0734 85.635 56.9826 86.1511 55.4745C86.9713 53.0778 85.9823 48.098 86.1511 43.3763C86.375 37.1126 86.9825 33.6298 87.4839 27.3821C87.9402 21.6978 89.6554 18.2392 88.0554 12.7656C87.5819 11.1455 86.7617 8.73206 86.7617 8.73206C86.7617 8.73206 84.8337 9.69607 84.5107 11.6954C84.1914 13.6717 84.3726 16.0658 84.3517 18.0676C84.2796 24.9615 84.3426 28.476 83.5436 35.3238C83.1683 38.541 82.5584 39.4518 82.2516 42.6763Z" fill="#F2A591"/>
<path d="M62.1973 124.807C62.1973 124.807 68.2273 125.37 71.9893 126.261C76.2273 127.264 78.5215 128.191 82.5459 129.856C84.1771 130.531 84.9386 131.384 86.6768 131.692C87.9416 131.917 89.9662 131.692 89.9662 131.692" stroke="#763704" stroke-width="0.4" stroke-linecap="round"/>
<path d="M61.042 128.954C61.042 128.954 66.8646 130.209 70.6265 131.1C74.8646 132.103 77.4278 132.321 81.4521 133.986C83.0834 134.661 83.4335 134.067 85.1717 134.375C86.4365 134.6 88.5026 134.653 88.5026 134.653" stroke="#763704" stroke-width="0.4" stroke-linecap="round"/>
<path d="M51.8071 73.0094C51.8071 73.0094 59.2731 74.5223 63.7046 76.4636C69.0457 78.8034 71.7573 80.8353 76.274 84.5233C80.0298 87.59 85.1013 93.2546 85.1013 93.2546" stroke="#763704" stroke-width="0.4" stroke-linecap="round"/>
<path d="M105.503 88.8834C105.503 88.8834 96.6982 85.6202 91.21 83.166C85.6778 80.6922 82.0129 80.0886 77.3107 76.2657C75.3463 74.6687 74.1967 73.7566 72.6777 71.7313C71.1587 69.7059 71.2937 67.9149 69.6218 66.0138C68.9564 65.2573 67.749 64.2395 67.749 64.2395" stroke="#763704" stroke-width="0.4" stroke-linecap="round"/>
<path d="M53.8291 58.3539C53.8291 58.3539 56.0859 57.5043 57.2612 56.5495C58.1724 55.8094 58.2619 54.9085 59.2778 54.3204C59.6311 54.1158 60.2331 53.8958 60.2331 53.8958" stroke="#763704" stroke-width="0.4" stroke-linecap="round"/>
<path d="M45.2739 27.0371C45.2739 27.0371 48.2505 25.2662 50.3135 24.4844C52.5802 23.6255 56.3351 22.979 56.3351 22.979" stroke="#763704" stroke-width="0.4" stroke-linecap="round"/>
<path d="M47.6572 38.7158C47.6572 38.7158 50.8824 37.5284 53.0088 36.9716C54.3131 36.6301 56.378 36.2185 56.378 36.2185" stroke="#763704" stroke-width="0.4" stroke-linecap="round"/>
<path d="M67.1699 52.4288C67.1699 52.4288 69.544 52.8326 71.0801 52.8633C72.9537 52.9007 75.859 52.4288 75.859 52.4288" stroke="#763704" stroke-width="0.4" stroke-linecap="round"/>
<path d="M83.377 40.5124C83.377 40.5124 86.6301 39.9507 88.7153 40.1039C90.2364 40.2156 92.5561 40.8121 92.5561 40.8121" stroke="#763704" stroke-width="0.4" stroke-linecap="round"/>
<path d="M99.1113 66.3348C99.1113 66.3348 100.741 68.1266 102.132 69.4264C103.605 70.8027 106.231 72.564 106.231 72.564" stroke="#763704" stroke-width="0.4" stroke-linecap="round"/>
<path d="M7.68084 77.3236C5.18385 76.2396 0.712832 74.8861 0.712832 74.8861C0.712832 74.8861 0.403341 76.1753 1.08807 77.3236C2.49161 79.6773 5.92697 80.0492 8.30154 81.4171C10.6623 82.777 11.4823 83.8769 13.6835 85.4822C17.2775 88.1032 19.933 89.2614 22.8759 92.597C25.1019 95.12 25.5241 97.1083 27.7505 99.631C29.2193 101.295 30.1952 102.091 31.8699 103.548C34.4405 105.784 36.1425 106.223 38.5306 108.654C42.9297 113.131 41.2918 111.857 45.7812 116.992C49.0784 120.085 48.7504 119.367 51.2277 122.688C52.6963 124.657 51.4675 125.745 51.3188 128.197C51.1263 131.372 48.7504 136.126 48.7504 136.126C48.7504 136.126 52.438 137.939 55.3377 136.126C58.9992 133.837 62.6301 129.635 62.1551 125.343C61.6933 121.171 59.1426 119.462 56.4872 116.211C52.9852 111.925 50.0143 110.489 45.7812 106.922C39.7964 101.88 30.1946 94.3272 30.1946 94.3272C30.1946 94.3272 21.5002 85.6274 14.9229 81.4171C12.1867 79.6656 10.6609 78.6173 7.68084 77.3236Z" fill="#F2A591"/>
<path d="M34.3936 105.151C34.3936 105.151 35.4037 100.429 36.5045 97.5524C37.2165 95.692 38.6151 92.9087 38.6151 92.9087M43.9342 84.4656C43.9342 84.4656 42.6874 87.8999 41.739 90.038C41.2366 91.1706 40.3881 92.9087 40.3881 92.9087M15.8188 85.4787C15.8188 85.4787 17.61 83.3328 18.6051 81.8482C19.3134 80.7914 20.2936 79.062 20.2936 79.062" stroke="#763704" stroke-width="0.4" stroke-linecap="round"/>
<path d="M66.9415 37.0352C66.9415 37.0352 69.885 37.0317 71.7432 36.7575C73.6842 36.471 76.6241 35.5669 76.6241 35.5669M66.9415 38.1463C66.9415 38.1463 70.2703 38.0516 72.3384 37.5908C73.7307 37.2805 75.8305 36.5193 75.8305 36.5193M66.9019 17.3129C66.9019 17.3129 70.433 17.3129 72.6955 17.3129C74.2297 17.3129 76.6241 17.3129 76.6241 17.3129" stroke="#763704" stroke-width="0.4" stroke-linecap="round"/>
<path d="M66.1875 34.2176C66.1875 34.2176 69.0621 33.1674 70.9893 32.9479C72.4982 32.776 74.8781 32.9479 74.8781 32.9479" stroke="#763704" stroke-width="0.4" stroke-linecap="round"/>
</svg>
