<svg xmlns="http://www.w3.org/2000/svg" width="163.439" height="132.987" viewBox="0 0 163.439 132.987">
  <g id="Group_492" data-name="Group 492" transform="translate(-127.738 -298.466)">
    <path id="Path_2107" data-name="Path 2107" d="M21078.268-1240.271l1.846,57.351,61.369,16.542v-54.974Z" transform="translate(-20932.5 1597.83)" fill="#ececec"/>
    <path id="Path_2108" data-name="Path 2108" d="M21141.482-1166.378l64.4-16.62,1.572-57.384-65.969,19.062Z" transform="translate(-20932.5 1597.83)" fill="#d4d4d4"/>
    <path id="Path_2109" data-name="Path 2109" d="M21141.355-1222.058l-62.432-18.44,60.422-16.515Z" transform="translate(-20932.373 1598.83)" fill="#efefef"/>
    <path id="Path_2110" data-name="Path 2110" d="M21139.451-1256.026l1.943,34.775,66.137-19.14Z" transform="translate(-20932.5 1597.83)" fill="#fff"/>
    <path id="Path_2111" data-name="Path 2111" d="M21207.33-1240.382l16.418-13.24-62.455-17.37-21.771,14.872Z" transform="translate(-20932.57 1597.941)" fill="#efefef"/>
    <path id="Path_2112" data-name="Path 2112" d="M21225.354-1221.333l19.084,15.7,63.092-19.187-16.26-15.5Z" transform="translate(-21016.352 1597.794)" fill="#efefef"/>
    <path id="Path_2113" data-name="Path 2113" d="M21061.67-1253.973l17.063,14.671,60.615-16.605-16.725-14.855Z" transform="translate(-20932.238 1597.711)" fill="#f5f5f5"/>
    <path id="Path_2114" data-name="Path 2114" d="M21061.238-1225.585l17.084-14.912,63.93,19.078L21123.2-1204.8Z" transform="translate(-20933.5 1597.83)" fill="#e1e1e1"/>
    <path id="Path_2115" data-name="Path 2115" d="M21266.648-1167.8s8.344-6.893,9.359-15.423.848-19.239-3.91-27.441-10.543-8.918-14.586-6.711-7.912,8.568,0,17.761,17.77-.073,19.029-4.548-.549-13.694,5.043-21.344,10.244-4.579,17.328-9.255a53.741,53.741,0,0,0,11.012-9.448" transform="translate(-21057.227 1543.384)" fill="none" stroke="#3a495a" stroke-linecap="round" stroke-width="1" stroke-dasharray="4"/>
  </g>
</svg>
