<svg width="52" height="52" viewBox="0 0 52 52" fill="none" xmlns="http://www.w3.org/2000/svg">
<g clip-path="url(#clip0_419_3743)">
<path d="M16.9062 33.6707C19.438 31.1389 22.8718 29.7166 26.4522 29.7166C30.0326 29.7166 33.4664 31.1389 35.9981 33.6707" stroke="white" stroke-width="3" stroke-linecap="round" stroke-linejoin="round"/>
<path d="M9.48193 26.2461C13.9828 21.7452 20.0873 19.2167 26.4525 19.2167C32.8177 19.2167 38.9222 21.7452 43.4231 26.2461" stroke="white" stroke-width="3" stroke-linecap="round" stroke-linejoin="round"/>
<path d="M27.513 42.1559C28.0988 41.5701 28.0988 40.6203 27.513 40.0346C26.9272 39.4488 25.9775 39.4488 25.3917 40.0346C24.8059 40.6203 24.8059 41.5701 25.3917 42.1559C25.9775 42.7417 26.9272 42.7417 27.513 42.1559Z" stroke="white" stroke-width="3" stroke-linecap="round" stroke-linejoin="round"/>
</g>
<defs>
<clipPath id="clip0_419_3743">
<rect width="36" height="36" fill="white" transform="translate(0.996582 26.2461) rotate(-45)"/>
</clipPath>
</defs>
</svg>
